<svg width="325" height="325" viewBox="0 0 325 325" fill="none" xmlns="http://www.w3.org/2000/svg">
<path d="M114.6 286.363C114.6 291.163 102.72 290.931 75.7541 292.766C53.597 294.266 41.0312 291.163 41.0312 286.363C41.0312 281.563 52.1741 277.714 74.3827 277.714C96.5913 277.714 114.6 281.571 114.6 286.363Z" fill="#DCDDE0"/>
<path d="M267.224 283.166C273.626 290.477 251.409 291.086 225.223 292.303C185.923 294.129 177.609 289.526 179.521 285.446C183.181 277.671 213.806 275.409 240.001 276.454C259.003 277.226 264.069 279.557 267.224 283.166Z" fill="#DCDDE0"/>
<path d="M160.062 47.0143C160.088 46.9351 160.141 46.8675 160.211 46.8236C160.282 46.7796 160.366 46.7621 160.448 46.7743C163.02 47.2028 165.805 48.0514 167.734 49.8171C169.047 50.9875 169.903 52.5846 170.151 54.3257C170.374 55.1828 170.442 55.86 170.605 56.7257C170.905 57.9 170.502 57.5828 170.082 57.54C167.382 57 164.46 56.2543 162.42 54.3257C160.782 52.7828 159.471 49.2257 160.062 47.0143Z" fill="#FCC18B"/>
<path d="M220.517 9.49715C220.552 9.44569 220.603 9.40751 220.662 9.38883C220.721 9.37015 220.785 9.37207 220.843 9.39429C222.733 10.1568 224.372 11.4336 225.574 13.08C226.3 14.1948 226.604 15.5323 226.431 16.8514C226.431 17.5371 226.346 18.0429 226.286 18.7114C226.286 19.6286 226.029 19.3457 225.737 19.2C223.877 18.2657 221.88 17.1429 220.766 15.3257C219.891 13.8686 219.643 11.0057 220.517 9.49715Z" fill="#FCC18B"/>
<path d="M238.054 10.6028C238.111 10.575 238.176 10.5683 238.237 10.584C238.298 10.5997 238.352 10.6368 238.388 10.6885C239.617 12.3155 240.366 14.2547 240.548 16.2857C240.602 17.6183 240.176 18.926 239.348 19.9714C238.988 20.5542 238.662 20.9485 238.268 21.4885C237.788 22.2685 237.728 21.8999 237.548 21.6257C236.425 19.9114 235.302 17.88 235.285 15.7457C235.268 14.0314 236.571 11.4428 238.054 10.6028Z" fill="#FCC18B"/>
<path d="M252.601 49.0457C252.65 49.0081 252.71 48.9878 252.772 48.9878C252.834 48.9878 252.894 49.0081 252.944 49.0457C254.441 50.4357 255.519 52.2173 256.055 54.1885C256.341 55.491 256.152 56.8527 255.524 58.0285C255.266 58.6628 255.018 59.1085 254.726 59.7428C254.392 60.5999 254.264 60.2485 254.041 60.0085C252.626 58.4742 251.169 56.7085 250.775 54.6171C250.458 52.9114 251.246 50.1428 252.601 49.0457Z" fill="#FCC18B"/>
<path d="M274.398 52.9285C274.459 52.9205 274.521 52.9329 274.573 52.964C274.626 52.9951 274.667 53.043 274.69 53.1C275.397 55.0183 275.558 57.0958 275.152 59.1C274.818 60.3922 274.034 61.5229 272.941 62.2885C272.427 62.7428 272.007 63.0257 271.475 63.4285C270.781 64.0371 270.832 63.6686 270.738 63.3514C270.172 61.3457 269.667 59.1171 270.267 57.0685C270.738 55.4057 272.692 53.2885 274.398 52.9285Z" fill="#FCC18B"/>
<path d="M251.761 24.3086C251.82 24.2861 251.885 24.2822 251.946 24.2975C252.007 24.3129 252.062 24.3467 252.104 24.3943C253.329 26.0263 254.074 27.9677 254.255 30.0001C254.309 31.3353 253.883 32.6456 253.055 33.6943C252.695 34.2686 252.37 34.6629 251.984 35.2029C251.495 35.9915 251.435 35.6229 251.255 35.3401C250.141 33.5829 249.009 31.5943 248.992 29.4601C248.975 27.7372 250.287 25.1486 251.761 24.3086Z" fill="#FCC18B"/>
<path d="M241.715 47.1428C241.772 47.1167 241.836 47.1109 241.897 47.1265C241.958 47.1421 242.011 47.1781 242.049 47.2285C243.271 48.8556 244.016 50.7907 244.2 52.8171C244.268 54.1711 243.845 55.5042 243.009 56.5714C242.649 57.1457 242.323 57.54 241.929 58.08C241.44 58.86 241.38 58.4914 241.2 58.2171C240.086 56.46 238.955 54.4714 238.938 52.3371C238.929 50.5714 240.189 48 241.715 47.1428Z" fill="#FCC18B"/>
<path d="M197.435 20.6142C197.384 20.6497 197.346 20.7003 197.326 20.7589C197.306 20.8174 197.305 20.8809 197.324 20.9399C198.023 22.8537 199.243 24.5339 200.847 25.7914C201.936 26.5613 203.264 26.9169 204.592 26.7942C205.278 26.7942 205.775 26.7428 206.452 26.7085C207.369 26.7085 207.095 26.4771 206.958 26.1771C206.101 24.2828 205.029 22.2514 203.247 21.0771C201.824 20.1428 198.969 19.7914 197.435 20.6142Z" fill="#FCC18B"/>
<path d="M232.165 52.6029C232.112 52.6363 232.072 52.6868 232.052 52.7461C232.032 52.8053 232.032 52.8697 232.054 52.9286C232.752 54.8406 233.969 56.5205 235.568 57.78C236.66 58.5498 237.991 58.9054 239.322 58.7829C239.999 58.7829 240.505 58.7314 241.174 58.6971C242.091 58.6971 241.816 58.4657 241.679 58.1657C240.822 56.2714 239.759 54.24 237.976 53.0229C236.571 52.1314 233.699 51.78 232.165 52.6029Z" fill="#FCC18B"/>
<path d="M185.571 31.7142C185.621 31.6767 185.681 31.6564 185.743 31.6564C185.805 31.6564 185.865 31.6767 185.914 31.7142C187.496 33.011 188.683 34.724 189.343 36.66C189.7 37.9445 189.591 39.3141 189.034 40.5257C188.811 41.1685 188.588 41.6228 188.331 42.24C188.048 43.0971 187.903 42.7628 187.663 42.54C186.171 41.0828 184.611 39.4114 184.097 37.3371C183.651 35.7171 184.286 32.9142 185.571 31.7142Z" fill="#FCC18B"/>
<path d="M191.999 18.9429C192.048 18.9053 192.109 18.885 192.171 18.885C192.233 18.885 192.293 18.9053 192.342 18.9429C193.924 20.2397 195.111 21.9527 195.771 23.8886C196.133 25.1726 196.024 26.5441 195.462 27.7543C195.248 28.3972 195.016 28.86 194.768 29.4686C194.476 30.3257 194.331 29.9914 194.091 29.7686C192.599 28.32 191.039 26.64 190.525 24.5743C190.045 22.92 190.679 20.1172 191.999 18.9429Z" fill="#FCC18B"/>
<path d="M281.863 62.2029C281.902 62.2515 281.923 62.312 281.923 62.3743C281.923 62.4366 281.902 62.4971 281.863 62.5457C280.422 63.9809 278.613 64.9895 276.634 65.46C275.321 65.6942 273.967 65.4574 272.811 64.7915C272.186 64.5172 271.757 64.2429 271.157 63.9343C270.3 63.5657 270.677 63.4543 270.926 63.24C272.511 61.8857 274.354 60.4886 276.429 60.1715C278.083 59.9229 280.826 60.8057 281.863 62.2029Z" fill="#FCC18B"/>
<path d="M266.572 34.9543C266.608 34.8793 266.617 34.7944 266.598 34.7135C266.579 34.6326 266.534 34.5604 266.469 34.5086C264.378 33.0171 261.789 31.6114 259.175 31.4829C257.422 31.3737 255.688 31.8901 254.281 32.94C253.501 33.4029 252.978 33.7971 252.249 34.3114C251.203 34.9286 251.692 35.0229 252.043 35.2629C254.323 36.7886 256.912 38.34 259.758 38.4343C261.935 38.5114 265.381 36.9343 266.572 34.9543Z" fill="#FCC18B"/>
<path d="M251.649 12.5572C251.638 12.4765 251.599 12.402 251.54 12.346C251.481 12.2899 251.404 12.2556 251.323 12.2486C248.752 12.1629 245.82 12.4201 243.609 13.7572C242.087 14.6368 240.927 16.0279 240.335 17.6829C239.94 18.4972 239.735 19.1315 239.4 19.9458C238.869 21.0343 239.323 20.8458 239.76 20.8543C242.503 20.8543 245.512 20.7258 247.903 19.2515C249.789 18.0686 251.786 14.8543 251.649 12.5572Z" fill="#FCC18B"/>
<path d="M233.202 5.37433C233.152 5.31019 233.081 5.26507 233.001 5.24639C232.922 5.2277 232.839 5.23655 232.765 5.27148C230.511 6.50576 228.119 8.22005 226.868 10.5258C225.991 12.0534 225.688 13.8431 226.011 15.5743C226.079 16.4315 226.233 17.1172 226.362 17.9915C226.456 19.2 226.756 18.8486 227.125 18.5915C229.491 17.2029 232.019 15.5486 233.322 13.0629C234.402 11.0658 234.488 7.27719 233.202 5.37433Z" fill="#FCC18B"/>
<path d="M217.714 6.85719C217.673 6.78587 217.61 6.73027 217.534 6.69921C217.458 6.66814 217.373 6.66341 217.294 6.68576C214.877 7.5429 212.246 8.88005 210.651 10.9715C209.563 12.3519 209.001 14.0746 209.066 15.8315C208.997 16.6886 209.066 17.3915 209.066 18.2743C208.971 19.4829 209.323 19.1315 209.726 18.9858C212.297 17.9829 215.031 16.74 216.703 14.4858C218.048 12.6943 218.708 8.96576 217.714 6.85719Z" fill="#FCC18B"/>
<path d="M222.908 21.12C222.888 21.0399 222.841 20.9688 222.776 20.9177C222.711 20.8666 222.631 20.8383 222.548 20.8372C219.977 21 217.088 21.54 214.98 23.0914C213.549 24.1102 212.528 25.6052 212.1 27.3086C211.783 28.1657 211.646 28.8086 211.388 29.6572C210.968 30.7886 211.388 30.5143 211.826 30.5143C214.56 30.2657 217.551 29.8457 219.788 28.14C221.58 26.7857 223.26 23.3829 222.908 21.12Z" fill="#FCC18B"/>
<path d="M199.501 43.26C199.538 43.3092 199.558 43.3695 199.558 43.4314C199.558 43.4933 199.538 43.5536 199.501 43.6028C198.242 45.2088 196.562 46.4342 194.649 47.1428C193.376 47.535 192.005 47.459 190.783 46.9285C190.123 46.7314 189.669 46.5171 189.069 46.2771C188.212 46.0114 188.538 45.8571 188.761 45.6171C190.166 44.0828 191.803 42.48 193.861 41.9143C195.472 41.4428 198.292 42 199.501 43.26Z" fill="#FCC18B"/>
<path d="M276.772 82.6458C276.77 82.7074 276.748 82.7666 276.71 82.8146C276.671 82.8626 276.618 82.8966 276.558 82.9115C274.567 83.362 272.489 83.2492 270.558 82.5858C269.328 82.0937 268.311 81.183 267.687 80.0143C267.301 79.4401 267.087 78.9858 266.744 78.4029C266.238 77.6401 266.598 77.7343 266.924 77.6915C268.981 77.3915 271.261 77.1858 273.215 78.0429C274.792 78.6943 276.627 80.9058 276.772 82.6458Z" fill="#FCC18B"/>
<path d="M282.856 67.2429C282.93 67.2797 282.988 67.341 283.021 67.4161C283.054 67.4912 283.059 67.5755 283.036 67.6543C282.179 70.08 280.876 72.72 278.802 74.3229C277.433 75.4237 275.716 76.001 273.959 75.9514C273.102 76.02 272.391 75.9514 271.508 75.9514C270.299 76.0457 270.651 75.6943 270.796 75.2914C271.782 72.72 273.008 69.9772 275.254 68.28C277.028 66.9772 280.748 66.2829 282.856 67.2429Z" fill="#FCC18B"/>
<path d="M268.466 50.2029C268.446 50.1229 268.4 50.052 268.334 50.0021C268.268 49.9522 268.188 49.9263 268.106 49.9286C265.534 50.16 262.671 50.7858 260.606 52.3972C259.207 53.4541 258.229 54.9727 257.846 56.6829C257.554 57.54 257.426 58.1915 257.203 59.0486C256.808 60.1886 257.203 59.9058 257.665 59.9058C260.391 59.5715 263.366 59.0486 265.551 57.3343C267.3 55.9029 268.886 52.4572 268.466 50.2029Z" fill="#FCC18B"/>
<path d="M199.458 6C199.497 5.92758 199.561 5.87102 199.637 5.83981C199.714 5.80859 199.799 5.80462 199.878 5.82857C202.295 6.68571 204.918 8.02285 206.512 10.1143C207.604 11.4932 208.17 13.2162 208.106 14.9743C208.175 15.8314 208.106 16.5429 208.106 17.4257C208.2 18.6257 207.849 18.2829 207.446 18.1286C204.875 17.1257 202.14 15.8829 200.469 13.6286C199.149 11.7771 198.48 8.04857 199.458 6Z" fill="#FCC18B"/>
<path d="M159.557 63.8228C159.499 63.7776 159.455 63.7158 159.432 63.6455C159.409 63.5752 159.408 63.4996 159.429 63.4285C160.629 61.1485 162.3 58.7314 164.572 57.4285C166.094 56.5542 167.877 56.2504 169.603 56.5714C170.46 56.6228 171.154 56.76 172.029 56.88C173.237 56.9485 172.886 57.2571 172.637 57.6257C171.292 60.0257 169.689 62.5714 167.22 63.9257C165.274 64.9285 161.486 65.0743 159.557 63.8228Z" fill="#FCC18B"/>
<path d="M183.738 15.2914C183.788 15.2518 183.85 15.2302 183.913 15.2302C183.977 15.2302 184.039 15.2518 184.089 15.2914C185.666 16.589 186.853 18.2978 187.518 20.2286C187.876 21.513 187.766 22.8829 187.209 24.0943C186.986 24.7457 186.763 25.2 186.506 25.8086C186.215 26.6657 186.069 26.34 185.838 26.1086C184.338 24.66 182.778 22.9886 182.272 20.9143C181.826 19.2686 182.452 16.4571 183.738 15.2914Z" fill="#FCC18B"/>
<path d="M245.194 29.5543C245.232 29.6036 245.252 29.6638 245.252 29.7257C245.252 29.7877 245.232 29.8479 245.194 29.8972C243.938 31.4997 242.261 32.7221 240.351 33.4286C239.075 33.8161 237.703 33.7402 236.477 33.2143C235.826 33.0172 235.363 32.7943 234.763 32.5629C233.906 32.2886 234.223 32.1343 234.446 31.8943C235.86 30.36 237.489 28.7657 239.546 28.2C241.174 27.7372 243.994 28.2857 245.194 29.5543Z" fill="#FCC18B"/>
<path d="M170.7 27.7457C170.67 27.6693 170.668 27.5853 170.693 27.5074C170.718 27.4295 170.769 27.3624 170.837 27.3172C173.074 26.04 175.791 24.9086 178.405 25.0457C180.162 25.1153 181.836 25.8081 183.128 27C183.857 27.5314 184.337 27.9943 185.005 28.5686C185.982 29.28 185.494 29.3229 185.117 29.5286C182.691 30.8229 179.974 32.1 177.162 31.9029C174.917 31.7143 171.651 29.8286 170.7 27.7457Z" fill="#FCC18B"/>
<path d="M162.094 35.7086C162.09 35.6274 162.114 35.5472 162.16 35.4806C162.207 35.4139 162.274 35.3645 162.351 35.34C164.863 34.7657 167.786 34.4829 170.254 35.34C171.915 35.9151 173.318 37.06 174.214 38.5715C174.754 39.2915 175.071 39.8743 175.56 40.62C176.288 41.5886 175.808 41.4772 175.388 41.5715C172.697 42.1115 169.714 42.5486 167.083 41.5715C164.983 40.7657 162.403 37.9886 162.094 35.7086Z" fill="#FCC18B"/>
<path d="M198.686 69.3086C198.686 71.7257 198.42 74.1429 198.326 76.5686C198.326 77.7429 200.109 77.7429 200.152 76.5686C200.246 74.1429 200.495 71.7257 200.512 69.3086C200.49 69.0817 200.384 68.8712 200.215 68.718C200.047 68.5648 199.827 68.48 199.599 68.48C199.371 68.48 199.151 68.5648 198.983 68.718C198.814 68.8712 198.708 69.0817 198.686 69.3086Z" fill="#414355"/>
<path d="M270.78 74.4771C265.477 75.4638 260.227 76.7168 255.051 78.2314C253.465 78.6771 251.914 79.2343 250.345 79.7486C251.871 77.6657 253.354 75.54 254.811 73.4143C255.299 72.7029 255.865 71.9828 256.414 71.2371C258.329 70.7216 260.188 70.0122 261.96 69.12C265.388 67.62 269.168 66.0857 271.825 63.3943C271.993 63.217 272.099 62.9902 272.127 62.7478C272.155 62.5053 272.105 62.2602 271.982 62.0491C271.86 61.838 271.672 61.6721 271.448 61.5762C271.223 61.4803 270.974 61.4596 270.737 61.5171C267.797 62.2371 265.174 63.9086 262.482 65.2371C261.188 65.8714 259.911 66.4543 258.557 67.0371C259.182 64.7914 259.414 62.4686 259.919 60.18C260.314 58.38 258.205 56.1171 256.431 57.4971C254.968 58.548 253.749 59.9015 252.857 61.4657C251.543 63.9121 249.927 66.1841 248.048 68.2286C247.688 68.6143 247.337 69.0171 246.985 69.42C246.599 64.98 245.331 59.8714 242.202 56.6743C241.968 56.4483 241.665 56.305 241.342 56.2659C241.018 56.2269 240.691 56.2944 240.409 56.458C240.127 56.6217 239.906 56.8727 239.78 57.1731C239.653 57.4735 239.628 57.8069 239.708 58.1228C240.651 61.4057 242.151 64.4057 242.854 67.7743C243.243 69.7074 243.483 71.6674 243.574 73.6371C241.242 76.6971 239.005 79.8514 236.494 82.74C233.365 86.3143 230.202 89.2714 227.751 93.1628C227.365 84.1029 229.285 75.2743 227.871 66.2743C227.491 63.9673 226.918 61.6963 226.157 59.4857C227.074 56.1257 228.034 52.7743 229.002 49.4229C233.117 47.16 237.008 44.6743 241.328 42.7714C245.369 40.8232 249.262 38.583 252.977 36.0686C254.228 35.2543 252.719 33.54 251.451 34.1057C247.474 35.88 243.737 38.2457 239.768 40.1057C236.214 41.865 232.879 44.0372 229.834 46.5771C230.405 44.68 230.959 42.7829 231.497 40.8857C233.537 33.9086 235.782 26.9057 240.831 21.5143C241.056 21.2874 241.191 20.9867 241.211 20.6679C241.231 20.3491 241.135 20.0338 240.94 19.7805C240.745 19.5273 240.466 19.3532 240.152 19.2906C239.839 19.2279 239.514 19.281 239.237 19.44C235.337 21.54 232.628 25.44 230.485 29.5714C230.579 25.0029 230.005 20.28 227.751 16.8C227.566 16.5094 227.285 16.2935 226.956 16.1906C226.628 16.0878 226.273 16.1046 225.956 16.2381C225.639 16.3717 225.379 16.6132 225.222 16.9201C225.066 17.2269 225.024 17.5791 225.102 17.9143C225.805 21.4371 226.817 24.7114 227.091 28.3371C227.297 30.6857 227.528 33.0171 227.811 35.34L226.808 37.6714C224.886 41.9372 223.448 46.4052 222.522 50.9914C220.444 46.947 218.12 43.0339 215.562 39.2743C213.231 35.8457 212.4 29.6486 212.314 28.0457C212.048 22.9029 212.314 18.6171 211.294 16.6886C209.974 14.22 206.837 15.3857 206.04 17.3743C204.205 21.9514 205.628 27.5914 206.04 32.3657C206.117 33.2229 206.16 34.14 206.194 35.04C203.725 33.8057 201.3 32.4686 198.882 31.1143C195.085 28.9371 191.28 25.8171 186.882 24.9686C185.262 24.6514 182.665 26.4 183.934 27.9171C186.857 31.3971 192.951 33.6771 196.791 36.8743C199.662 39.5569 202.247 42.5299 204.505 45.7457C208.868 53.1857 213.394 59.46 214.92 68.1C212.974 67.08 210.96 66.5829 208.825 65.6657C204.12 63.6514 199.44 62.64 195.36 59.46C192.678 57.2864 190.253 54.8132 188.134 52.0886C188.322 50.5886 188.331 49.0714 188.468 47.5629C188.734 45.5357 189.267 43.5528 190.054 41.6657C190.602 40.1571 188.297 39.2657 187.482 40.5943C186.175 43.0441 185.476 45.772 185.442 48.5486C183.128 45.12 181.242 41.1086 178.311 38.2629C176.348 36.36 173.58 38.3229 174.025 40.7657C174.882 45.54 178.045 50.4771 180.385 54.6686C180.557 54.9771 180.745 55.2857 180.925 55.5943L178.242 55.3371C175.131 55.0371 169.5 55.3371 169.182 56.0829C168.754 57.1114 168.531 58.0457 169.482 58.3286C172.294 59.1857 175.328 58.8771 178.242 59.0057C179.905 59.0743 181.577 59.1857 183.248 59.22C185.154 61.9652 187.43 64.4342 190.011 66.5571C194.211 69.9857 199.517 71.6143 204.582 73.3628C207.673 74.488 210.82 75.4522 214.011 76.2514C214.559 76.3714 215.1 76.5257 215.64 76.6714C215.391 79.2428 214.92 81.8143 214.662 84.3857C214.131 89.6914 215.014 95.2628 215.142 100.586C215.391 110.811 218.305 120.429 219.428 130.526C220.53 141.418 220.478 152.396 219.274 163.277C218.237 173.623 216.025 183.849 214.508 194.091C213.023 204.962 212.23 215.915 212.134 226.886C211.809 237.003 212.055 247.13 212.871 257.22C213.325 262.123 214.071 268.097 214.585 272.983C214.997 276.686 216.505 282.857 217.928 284.563C219.094 285.951 221.434 286.209 224.511 285.711C226.602 285.377 228.565 285.351 229.654 283.646C230.862 281.76 229.422 277.843 228.977 275.666C228.531 273.489 228 268.92 227.648 266.666C226.928 261.969 226.611 257.186 226.174 252.454C225.188 241.714 225.317 230.76 225.565 219.986C226.054 198.506 231.308 177.694 232.748 156.326C233.416 146.002 233.066 135.638 231.702 125.383C231.06 120.351 229.842 115.423 228.891 110.451C228.634 109.14 228.454 107.811 228.325 106.483C230.297 103.997 232.037 101.34 233.837 98.7686C236.922 94.2771 241.285 90.9171 244.8 86.7686C245.597 85.8428 246.368 84.8829 247.131 83.9143C249.522 83.2457 251.948 82.7143 254.297 81.8828C259.937 79.9028 266.399 79.7743 271.439 76.2771C271.665 76.1802 271.845 76.0005 271.942 75.7749C272.04 75.5494 272.047 75.2951 271.962 75.0645C271.877 74.8339 271.708 74.6445 271.488 74.5352C271.268 74.426 271.014 74.4052 270.78 74.4771Z" fill="#858FA9"/>
<path d="M206.109 85.7143C205.055 84.6857 204.061 83.6657 203.212 82.7571C204.311 81.8594 205.456 81.0183 206.641 80.2371L206.135 79.4743C204.915 80.2711 203.736 81.1293 202.603 82.0457L202.269 81.6771C201.738 81.0771 200.675 79.74 199.578 78.2485C200.221 77.6914 200.726 77.2714 201.472 76.7143C201.06 76.6231 200.641 76.5601 200.221 76.5257C199.809 76.8514 199.363 77.1857 199.029 77.5114C198.515 76.8257 198.232 76.7057 197.778 76.0628C197.435 76.1057 197.212 76.2171 196.861 76.2514C197.401 77.04 197.718 77.2543 198.335 78.12C197.041 79.2771 196.021 80.3228 195.412 80.9571L195.061 81.3428C194.135 80.1428 193.063 78.7114 192.172 77.4514C192.772 76.8428 193.338 76.2857 193.826 75.7971C193.406 75.7971 192.969 75.7971 192.549 75.7971L191.641 76.7143C191.418 76.3885 191.332 76.3286 191.152 76.0543L190.295 76.2943C190.509 76.62 190.749 76.9885 191.023 77.3828C189.703 78.7285 188.358 80.1257 187.595 80.94C187.132 80.1514 186.378 78.8057 185.769 77.6914L184.972 78.1285C185.563 79.2171 186.463 80.8457 186.952 81.6514C185.589 83.1675 184.315 84.7616 183.138 86.4257L183.086 86.3657C182.735 85.92 182.306 85.3885 181.843 84.8228C181.269 84.1028 180.618 83.3057 180.035 82.56C180.892 81.4457 181.843 80.2971 182.375 79.7057L181.706 79.0971C181.218 79.6285 180.326 80.7171 179.461 81.8143C179.041 81.2743 178.689 80.7943 178.458 80.4428L177.695 80.9485C177.961 81.36 178.381 81.9257 178.878 82.56C178.158 83.4771 177.532 84.2743 177.266 84.7114C176.863 85.3285 176.486 85.8771 176.126 86.4257C175.998 86.6143 175.861 86.8028 175.732 87C174.911 86.0394 174.138 85.0381 173.418 84L172.663 84.5143C173.462 85.6506 174.32 86.7436 175.235 87.7885C174.772 88.4828 174.318 89.2114 173.829 90.0685C173.641 90.42 173.298 91.0628 172.878 91.8857L171.755 90.4457C171.035 89.5371 170.383 88.7314 169.989 88.2343L169.286 88.8171C169.672 89.28 170.323 90.1114 171.001 91.0114L172.389 92.7857C171.695 94.1914 170.881 95.9314 170.161 97.6714C168.763 95.8971 167.538 94.2428 166.869 93.2228L166.098 93.72C166.826 94.8514 168.215 96.6857 169.766 98.64C169.215 99.9709 168.782 101.348 168.472 102.754L169.372 102.926C169.629 101.757 169.979 100.611 170.418 99.4971C171.969 101.434 173.589 103.406 174.841 104.889C174.738 105.291 175.543 105.891 175.578 105.746C175.698 105.891 176.375 105.283 175.843 104.649C176.135 103.474 176.461 102.3 176.846 101.16C177.086 100.474 177.369 99.7371 177.703 98.9314C177.901 99.1628 178.098 99.3857 178.303 99.6085L180.446 102.043C180.643 102.274 180.858 102.489 181.063 102.72C180.789 103.38 180.523 104.023 180.301 104.597C180.078 105.171 181.029 105.249 181.158 104.923C181.338 104.469 181.543 103.971 181.758 103.449C182.383 104.109 182.863 104.631 183.472 105.257C183.823 105.18 184.149 104.966 184.501 104.88C183.643 104.023 182.941 103.414 182.101 102.531C182.769 100.989 183.549 99.2914 184.363 97.6543L185.058 98.3314C185.709 98.9571 186.952 100.106 188.392 101.4C187.903 102.257 187.482 103.151 187.132 104.074C187.501 103.954 187.861 103.903 188.229 103.774C188.503 103.089 188.769 102.694 189.086 102.06C189.506 102.437 189.729 102.694 190.166 103.071C190.475 102.943 190.775 102.797 191.083 102.651C190.483 102.137 190.098 101.734 189.523 101.22C190.021 100.286 190.552 99.3771 191.049 98.52C191.375 97.9628 191.683 97.4314 191.975 96.9C192.978 97.7571 193.929 98.6914 195.155 99.72C194.975 100.029 196.312 99.0943 196.406 99.42C196.355 99.06 196.972 98.8885 197.161 98.5628C197.677 97.5604 198.25 96.5874 198.875 95.6485C199.432 96.2057 199.681 96.5057 199.963 96.72C200.195 96.5143 200.503 96.36 200.726 96.1457C200.452 95.9057 200.049 95.5371 199.406 94.8857C199.903 94.1657 200.409 93.4628 200.915 92.7857C201.215 92.3657 201.523 91.9286 201.772 91.5428C201.772 91.4914 202.046 91.1743 202.466 90.6857C203.118 91.2685 203.761 91.8257 204.378 92.3228C204.566 92.0828 204.738 91.8343 204.918 91.5857C204.326 91.1057 203.701 90.5657 203.066 90C203.986 88.9649 204.962 87.9806 205.989 87.0514L207.138 88.1228C207.283 87.84 207.241 87.3943 207.386 87.1114L206.675 86.4428C207.146 86.0314 207.198 86.0485 207.729 85.5857C207.729 85.1914 207.652 84.8828 207.652 84.5143C206.966 85.0971 206.761 85.1743 206.109 85.7143ZM196.072 81.6428C196.655 81.0257 197.632 80.0314 198.875 78.9171C199.981 80.3743 201.026 81.6943 201.575 82.3457L201.892 82.6885C200.789 83.6273 199.737 84.6229 198.738 85.6714C198.001 84.9085 197.323 84.1885 196.775 83.5628C196.501 83.2543 196.098 82.7657 195.618 82.1571L196.072 81.6428ZM196.072 84.1457C196.638 84.7885 197.341 85.5343 198.103 86.3228C197.551 86.9183 197.031 87.542 196.543 88.1914L195.686 89.4343L195.086 90.2914L193.518 88.6714C193.029 88.1657 192.386 87.4028 191.718 86.5714C192.806 85.2685 193.903 84 195.009 82.8428C195.429 83.4085 195.823 83.88 196.089 84.18L196.072 84.1457ZM191.495 78.1457C192.403 79.4228 193.475 80.8543 194.401 82.0457C193.286 83.2371 192.181 84.4628 191.092 85.7657C189.798 84.1114 188.521 82.3371 188.058 81.7371C188.761 81.06 190.141 79.62 191.512 78.2143L191.495 78.1457ZM187.432 82.4314C188.006 83.22 189.249 84.9 190.492 86.4771C189.395 87.8228 188.315 89.2714 187.235 90.8743C185.906 89.4943 184.552 88.08 183.712 87.1371C184.866 85.5196 186.114 83.9712 187.449 82.5L187.432 82.4314ZM176.838 86.9228C177.206 86.3914 177.583 85.8343 177.995 85.2086C178.218 84.8657 178.766 84.1371 179.409 83.2971C179.949 83.9828 180.541 84.7114 181.123 85.3971L182.366 86.9314L182.589 87.2057C181.852 88.2771 181.158 89.3914 180.489 90.5657C180.275 90.9343 180.095 91.3285 179.906 91.7143L178.766 90.4543L178.029 89.5971L176.315 87.6771L176.838 86.9228ZM175.981 100.834C175.655 101.794 175.381 102.771 175.123 103.757C173.855 102.24 172.278 100.329 170.838 98.4685C171.532 96.7543 172.346 95.04 173.058 93.5571C173.418 94.0028 173.735 94.4143 173.966 94.6457C175.003 95.8028 176.032 96.9771 177.061 98.1428C176.572 99.18 176.246 100.08 175.963 100.903L175.981 100.834ZM177.429 97.2857C176.495 96.2228 175.561 95.16 174.609 94.1057C174.343 93.7971 173.932 93.3 173.469 92.7257C173.966 91.74 174.378 90.9686 174.601 90.5657C175.012 89.8286 175.415 89.1771 175.818 88.56L177.343 90.2743L178.081 91.1314C178.535 91.6457 178.998 92.16 179.478 92.6743C179.255 93.1628 179.041 93.66 178.835 94.14C178.561 94.7914 178.286 95.4428 177.978 96.06C177.772 96.48 177.592 96.8571 177.429 97.2857ZM181.458 101.829C181.355 101.709 181.235 101.597 181.132 101.477L178.989 99.0428L178.132 98.04C178.355 97.5257 178.595 97.0028 178.852 96.4457C179.109 95.8885 179.435 95.1514 179.709 94.4914L180.189 93.3943C181.286 94.56 182.461 95.76 183.746 97.02C182.889 98.6228 182.109 100.286 181.441 101.829H181.458ZM184.149 96.1714C182.855 94.8943 181.672 93.6771 180.566 92.4943C180.789 92.0143 181.021 91.5343 181.278 91.0885C181.903 90.0085 182.538 88.98 183.215 87.9771C184.115 88.98 185.452 90.3771 186.755 91.7143C186.386 92.2714 186.026 92.8457 185.666 93.4285C185.143 94.2857 184.638 95.1943 184.132 96.1714H184.149ZM190.303 98.0657C189.832 98.8714 189.335 99.72 188.863 100.637C187.509 99.4114 186.352 98.34 185.726 97.74L184.869 96.8828C185.409 95.8457 185.949 94.8428 186.481 93.96C186.798 93.4371 187.123 92.94 187.441 92.4428C188.735 93.7714 189.901 94.9371 190.389 95.4257L191.358 96.3343C190.989 96.8571 190.646 97.4486 190.286 98.0657H190.303ZM191.821 95.3743C191.803 95.3981 191.789 95.424 191.778 95.4514C191.495 95.1943 191.229 94.9371 190.998 94.7143C190.415 94.1485 189.223 92.94 187.921 91.6114C188.975 90.0343 190.038 88.6028 191.109 87.3257C191.761 88.1143 192.369 88.8428 192.823 89.34L194.538 91.0543C193.522 92.4253 192.608 93.8692 191.803 95.3743H191.821ZM196.389 98.1085C196.235 98.4171 196.055 98.7343 195.875 99.0514C194.641 98.0057 193.458 96.9771 192.446 96.0857L192.609 95.7857C193.371 94.3709 194.231 93.0105 195.181 91.7143L195.515 92.0657L198.292 94.9457C197.592 95.9627 196.951 97.0187 196.372 98.1085H196.389ZM201.146 90.9685L200.246 92.2114C199.775 92.8543 199.295 93.5143 198.823 94.1828C198.018 93.3257 197.109 92.3914 196.183 91.4314L195.721 90.9514L196.415 90.0085C196.715 89.5885 197.023 89.1514 197.315 88.7657C197.366 88.6971 197.855 88.0285 198.772 87.0514C199.758 88.0457 200.829 89.0743 201.901 90.06C201.429 90.5743 201.163 90.9257 201.129 90.9685H201.146ZM202.501 89.3228C201.438 88.3457 200.375 87.3257 199.398 86.3314C200.388 85.2916 201.432 84.3046 202.526 83.3743C203.383 84.2914 204.378 85.32 205.441 86.3571C204.402 87.2917 203.415 88.2817 202.483 89.3228H202.501Z" fill="#858FA9"/>
<path d="M207.841 80.3657C207.906 80.3303 207.964 80.2839 208.012 80.2286C211.072 76.5343 211.175 69.7371 209.992 65.22C209.135 61.8514 204.155 60.0771 201.421 62.7171C201.31 62.8286 201.901 63.0343 202.278 63.1628C202.655 63.2914 203.135 63.5571 203.358 63.48C205.364 62.7943 206.392 63.5486 207.447 64.5086C208.887 65.8286 208.758 68.3914 208.835 70.1314C208.947 72.8314 208.57 76.4143 206.855 78.7028C205.081 76.5943 201.832 75.9771 199.21 75.66C193.496 74.9719 187.7 75.7128 182.343 77.8161C176.986 79.9195 172.235 83.3195 168.515 87.7114C168.275 88.0028 168.044 88.2943 167.821 88.5686C165.078 87.2914 162.232 85.6286 159.121 85.74C157.702 85.8531 156.37 86.4669 155.362 87.4718C154.354 88.4767 153.736 89.8072 153.618 91.2257C153.224 98.4 160.904 102.866 167.264 103.174C169.347 104.889 172.33 105.746 174.704 106.217C185.324 108.283 197.187 100.689 204.378 93.4371C205.991 91.8087 207.165 89.7985 207.792 87.5939C208.418 85.3892 208.477 83.0618 207.961 80.8286C207.952 80.6829 207.901 80.5714 207.841 80.3657ZM155.598 93.36C154.424 89.2628 158.17 86.9828 161.692 87.9343C163.467 88.5022 165.188 89.225 166.835 90.0943C165.902 91.4418 165.252 92.9644 164.923 94.5701C164.595 96.1758 164.595 97.8315 164.924 99.4371C165.054 100.041 165.279 100.619 165.592 101.151C161.204 100.431 156.858 97.7143 155.598 93.36ZM204.652 90.1029C202.647 93.7371 198.412 96.4886 195.018 98.6314C188.075 103.02 180.807 105.986 172.655 103.894C158.727 100.32 171.121 86.3486 177.455 82.4657C184.312 78.2914 191.298 76.5171 199.244 77.4686C201.455 77.7428 203.307 78.0428 205.141 79.5257C208.347 82.1143 206.118 87.4286 204.652 90.1029Z" fill="#414355"/>
<path d="M167.229 102.206C170.271 104.64 172.526 107.391 174.943 109.757C177.626 112.329 180.034 115.217 182.606 117.969C185.177 120.72 187.431 123.84 189.917 126.651C192.043 129.06 194.074 131.434 196.277 133.766C196.236 133.736 196.202 133.698 196.178 133.653C196.154 133.609 196.141 133.559 196.14 133.509" stroke="#414355" stroke-width="1.06626" stroke-miterlimit="10"/>
<path d="M196.088 133.509C197.159 134.571 200.562 133.449 203.014 132.831C205.712 132.118 208.32 131.1 210.788 129.797C213.57 128.324 216.036 126.321 218.048 123.9C219.591 122.186 221.776 119.794 221.528 117.36" stroke="#414355" stroke-width="1.06626" stroke-miterlimit="10"/>
<path d="M207.592 80.2715C208.449 81.3772 208.5 82.9458 208.955 84.1629C209.675 86.0658 210.763 87.9001 211.526 89.8115C212.718 92.7686 213.943 95.8115 215.066 98.7772C216.3 102.06 217.56 105.334 218.778 108.6C219.488 110.295 220.1 112.029 220.612 113.794C220.929 115.123 221.512 116.143 221.52 117.514" stroke="#414355" stroke-width="1.06626" stroke-miterlimit="10"/>
<path d="M203.477 93.0686C206.905 93.0686 209.631 93.3515 212.965 93.3515" stroke="#414355" stroke-width="1.06626" stroke-miterlimit="10"/>
<path d="M206.982 87.9685C208.508 88.6456 209.648 88.7228 211.174 89.2628" stroke="#414355" stroke-width="1.06626" stroke-miterlimit="10"/>
<path d="M180.515 105.634C179.778 108.429 177.549 109.971 176.752 111.343" stroke="#414355" stroke-width="1.06626" stroke-miterlimit="10"/>
<path d="M180.574 115.86C181.81 114.328 182.955 112.726 184.003 111.06C185.137 109.023 185.92 106.809 186.317 104.511" stroke="#414355" stroke-width="1.06626" stroke-miterlimit="10"/>
<path d="M194.572 100.603C194.602 102.258 194.429 103.91 194.057 105.523C193.354 108.094 192.295 110.555 190.912 112.834C188.82 116.203 186.455 119.383 185.203 120.257" stroke="#414355" stroke-width="1.06626" stroke-miterlimit="10"/>
<path d="M202.396 94.7229C202.773 95.2886 201.539 101.863 201.248 103.174C200.714 105.725 199.972 108.228 199.028 110.657C197.735 113.773 196.148 116.758 194.288 119.571C193.519 121.028 192.639 122.424 191.656 123.746C190.889 124.507 190.181 125.327 189.539 126.197" stroke="#414355" stroke-width="1.06626" stroke-miterlimit="10"/>
<path d="M207.429 86.9572C208.206 90.9075 208.4 94.9506 208.003 98.9572C207.557 103.826 206.914 108.986 204.806 113.589C203.306 116.871 201.694 120.274 200.057 123.463C199.33 125.022 198.433 126.497 197.383 127.86C196.526 128.889 195.052 130.114 194.58 131.46" stroke="#414355" stroke-width="1.06626" stroke-miterlimit="10"/>
<path d="M213.874 95.52C213.823 97.6372 213.394 103.183 213.188 105.06C212.803 108.916 211.978 112.715 210.728 116.383C210.103 118.217 209.108 120.017 208.337 121.809C207.66 123.402 206.899 124.959 206.057 126.471C204.644 128.828 203.096 131.1 201.42 133.277" stroke="#414355" stroke-width="1.06626" stroke-miterlimit="10"/>
<path d="M218.502 108C218.331 109.543 217.542 113.889 217.242 114.969C216.625 117.24 216.325 118.843 215.528 121.071C214.997 122.597 212.657 127.14 211.859 129.077" stroke="#414355" stroke-width="1.06626" stroke-miterlimit="10"/>
<path d="M195.822 99.3514C199.073 99.8694 202.362 100.116 205.654 100.089C208.882 99.9887 212.104 99.7226 215.305 99.2914" stroke="#414355" stroke-width="1.06626" stroke-miterlimit="10"/>
<path d="M187.654 104.203C189.531 104.73 191.441 105.13 193.371 105.403C194.7 105.574 200.34 105.746 203.991 105.917C207.027 105.901 210.059 105.729 213.077 105.403C213.669 105.326 215.931 104.837 217.414 104.494" stroke="#414355" stroke-width="1.06626" stroke-miterlimit="10"/>
<path d="M173.932 105.634C175.457 106.603 180.026 108.3 184.629 109.346C186.934 109.869 197.032 111.523 201.112 111.814C203.032 111.951 210.763 112.363 212.623 112.26C214.732 112.149 218.623 112.029 220.157 111.806" stroke="#414355" stroke-width="1.06626" stroke-miterlimit="10"/>
<path d="M177.721 112.603C179.435 113.229 187.912 115.774 189.721 116.134C193.329 116.829 199.929 117.549 202.312 117.746C205.672 118.02 208.964 118.2 212.349 118.2C215.44 118.248 218.531 118.114 221.606 117.797" stroke="#414355" stroke-width="1.06626" stroke-miterlimit="10"/>
<path d="M186.172 122.083C187.475 122.323 191.58 122.854 192.918 122.991C196.138 123.387 199.376 123.619 202.62 123.686C205.895 123.686 209.178 123.686 212.452 123.686C213.943 123.686 216.918 123.446 218.452 123.394" stroke="#414355" stroke-width="1.06626" stroke-miterlimit="10"/>
<path d="M191.143 128.083C192.171 128.254 195.094 129 195.994 129.171C196.894 129.343 200.28 129.763 201.197 129.797C202.911 129.849 210.137 129.746 210.788 129.849" stroke="#414355" stroke-width="1.06626" stroke-miterlimit="10"/>
<path d="M122.246 73.6543C120.738 70.6029 117.103 70.8172 114.421 71.8115C112.696 72.4267 111.171 73.4989 110.009 74.9135C108.846 76.3281 108.09 78.0319 107.821 79.8429C107.805 79.9676 107.832 80.0938 107.895 80.2021C107.959 80.3105 108.056 80.3951 108.172 80.4429C108.943 85.1058 114.849 89.3058 118.826 86.1258C120.626 84.6858 121.398 81.7029 122.118 79.56C122.701 77.7943 123.112 75.4286 122.246 73.6543Z" fill="#FFA348"/>
<path d="M103.628 68.16C106.078 68.2755 108.532 68.0388 110.914 67.4572C113.372 66.7485 115.752 65.7952 118.02 64.6114C118.02 64.5 117.968 64.3886 117.951 64.2772L117.814 63.6257C117.354 61.5269 116.591 59.5059 115.551 57.6257C113.859 58.3445 112.032 58.6895 110.194 58.6372C109.585 58.6372 109.105 58.6372 108.84 58.6372C104.884 58.297 101.001 57.3667 97.3197 55.8772C95.128 54.9377 92.9852 53.8877 90.8997 52.7314C88.0297 55.7703 86.2951 59.7057 85.9883 63.8743C89.4536 65.2036 92.994 66.3284 96.5911 67.2429C98.8976 67.7978 101.257 68.1052 103.628 68.16Z" fill="#858FA9"/>
<path d="M108.909 57.6514C109.432 57.6514 112.835 57.9 115.106 56.7942C113.722 54.3684 111.893 52.2252 109.715 50.4771C107.698 48.9115 105.444 47.6787 103.037 46.8257L102.617 46.6714C100.866 47.0168 99.1465 47.5041 97.4746 48.1285C95.2512 49.0282 93.2161 50.3365 91.4746 51.9857C93.4453 53.0858 95.4739 54.0787 97.5517 54.96C101.18 56.4238 105.009 57.3312 108.909 57.6514Z" fill="#858FA9"/>
<path d="M118.286 70.92C118.429 70.0472 118.504 69.1645 118.509 68.28C118.5 67.3618 118.406 66.4464 118.226 65.5457C115.979 66.6983 113.625 67.6312 111.198 68.3315C108.733 68.9451 106.192 69.1963 103.655 69.0772C101.216 69.0091 98.7907 68.6815 96.4208 68.1C92.8795 67.1976 89.3913 66.0988 85.9722 64.8086C85.8969 68.4495 87.0571 72.0086 89.2636 74.9057C91.8698 78.2467 95.444 80.7014 99.4979 81.9343C105.361 80.1429 108.926 77.22 111.858 74.8372C114.052 73.0114 115.972 71.4429 118.286 70.92Z" fill="#858FA9"/>
<path d="M115.894 56.3143C116.48 55.9019 116.899 55.294 117.077 54.6C117.433 52.6308 117.249 50.6019 116.545 48.7286C112.898 46.5519 108.601 45.7295 104.408 46.4057C106.517 47.2308 108.502 48.3442 110.305 49.7143C112.565 51.5453 114.46 53.7841 115.894 56.3143Z" fill="#858FA9"/>
<path d="M117.969 54.7885C117.744 55.7431 117.169 56.5783 116.357 57.1285C117.442 59.1042 118.236 61.2261 118.715 63.4285L118.843 64.0714C118.843 64.0714 118.843 64.1228 118.843 64.14L119.863 63.5657L120.137 63.4028C121.821 62.3649 123.335 61.0758 124.629 59.58C124.325 58.5984 123.947 57.6413 123.497 56.7171C122.157 53.8962 120.176 51.4277 117.712 49.5085C118.224 51.2218 118.312 53.0337 117.969 54.7885Z" fill="#858FA9"/>
<path d="M120.609 64.2172L120.335 64.3715L119.049 65.1001C119.27 66.146 119.388 67.2111 119.4 68.2801C119.395 69.1727 119.323 70.0637 119.186 70.9458C119.71 71.0757 120.188 71.3487 120.566 71.7343C121.502 72.756 122.03 74.0861 122.049 75.4715C123.598 73.3694 124.66 70.9491 125.158 68.3859C125.656 65.8226 125.578 63.1807 124.929 60.6515C123.666 62.0396 122.211 63.2403 120.609 64.2172Z" fill="#858FA9"/>
<path d="M119.915 72.3772C119.679 72.1288 119.384 71.9432 119.058 71.8372C118.656 73.8679 118.032 75.8483 117.198 77.7429C116.675 78.8939 116.013 79.9763 115.227 80.9657C116.178 80.5259 117.092 80.0099 117.961 79.4229C119.095 78.6416 120.134 77.7296 121.055 76.7057C121.22 75.9454 121.202 75.157 121.004 74.4048C120.806 73.6526 120.433 72.9578 119.915 72.3772Z" fill="#858FA9"/>
<path d="M118.089 71.9143C116.169 72.4714 114.489 73.8343 112.406 75.54C109.084 78.5174 105.231 80.8435 101.049 82.3972C105.162 83.3504 109.461 83.1125 113.443 81.7114C114.609 80.4288 115.584 78.9855 116.34 77.4257C117.112 75.654 117.698 73.8069 118.089 71.9143Z" fill="#858FA9"/>
<path d="M120.154 63.4286L119.88 63.5914L118.86 64.1657C118.86 64.1657 118.86 64.1657 118.86 64.0971L118.714 63.4286C118.238 61.2202 117.444 59.0924 116.357 57.1114C117.169 56.5612 117.744 55.7259 117.969 54.7714C118.315 53.0235 118.232 51.2178 117.729 49.5086C117.346 49.2171 116.952 48.9314 116.546 48.6514C117.249 50.5248 117.433 52.5536 117.077 54.5228C116.9 55.2169 116.48 55.8248 115.894 56.2371C114.453 53.7346 112.558 51.5225 110.306 49.7143C108.506 48.3232 106.521 47.1894 104.409 46.3457C103.834 46.4228 103.243 46.5257 102.694 46.6371L103.114 46.7914C105.496 47.6624 107.724 48.9065 109.714 50.4771C111.881 52.2309 113.699 54.3769 115.072 56.8028C112.8 57.9 109.397 57.66 108.874 57.66C105.01 57.3296 101.216 56.4224 97.6201 54.9686C95.5423 54.0873 93.5137 53.0944 91.543 51.9943C91.3116 52.2171 91.0887 52.4486 90.8659 52.6714C92.9514 53.8277 95.0941 54.8776 97.2859 55.8171C100.983 57.3087 104.884 58.2362 108.857 58.5686C109.123 58.5686 109.603 58.5686 110.212 58.5686C112.049 58.6209 113.877 58.2759 115.569 57.5571C116.609 59.4373 117.371 61.4583 117.832 63.5571L117.969 64.2086C117.969 64.32 117.969 64.4314 118.037 64.5428C115.77 65.7266 113.389 66.6799 110.932 67.3886C108.549 67.9702 106.096 68.2069 103.646 68.0914C101.273 68.0254 98.9139 67.7065 96.6087 67.14C93.0116 66.2255 89.4712 65.1007 86.0059 63.7714C86.0059 64.0971 86.0059 64.4143 86.0059 64.74C89.4249 66.0302 92.9132 67.129 96.4544 68.0314C98.8244 68.6129 101.249 68.9405 103.689 69.0086C106.226 69.1277 108.767 68.8765 111.232 68.2628C113.659 67.5626 116.012 66.6297 118.26 65.4771C118.439 66.3778 118.534 67.2932 118.543 68.2114C118.538 69.0959 118.463 69.9786 118.32 70.8514C116.032 71.3743 114.112 72.9429 111.892 74.7686C108.977 77.1514 105.394 80.0743 99.5316 81.8657C100.054 82.0286 100.577 82.1828 101.109 82.3114C105.291 80.7578 109.143 78.4316 112.466 75.4543C114.549 73.74 116.229 72.3857 118.149 71.8286C117.766 73.7053 117.192 75.5378 116.434 77.2971C115.679 78.8569 114.703 80.3002 113.537 81.5828C114.137 81.3686 114.72 81.12 115.303 80.8543C116.09 79.8648 116.752 78.7824 117.274 77.6314C118.109 75.7368 118.732 73.7564 119.134 71.7257C119.461 71.8318 119.755 72.0173 119.992 72.2657C120.5 72.8432 120.866 73.5315 121.061 74.2755C121.256 75.0196 121.274 75.799 121.114 76.5514C121.474 76.1486 121.809 75.7371 122.126 75.3171C122.107 73.9317 121.579 72.6017 120.643 71.58C120.265 71.1943 119.787 70.9213 119.263 70.7914C119.4 69.9093 119.472 69.0183 119.477 68.1257C119.465 67.0567 119.347 65.9916 119.126 64.9457L120.412 64.2171L120.686 64.0628C122.276 63.0833 123.719 61.8827 124.972 60.4971C124.886 60.1457 124.8 59.7943 124.689 59.4428C123.395 60.9999 121.865 62.3448 120.154 63.4286Z" fill="#414355"/>
<path d="M118.595 86.1514C116.147 86.1717 113.716 85.7327 111.429 84.8571C111.094 84.7076 110.75 84.576 110.401 84.4628C110.152 84.3257 110.135 84.36 110.041 84.7286C108.152 91.8882 106.65 99.1445 105.541 106.466C104.932 110.546 107.187 113.006 110.409 115.14C110.562 115.228 110.743 115.251 110.913 115.207C111.083 115.162 111.229 115.051 111.318 114.9C113.247 111.137 113.778 107.04 114.652 102.951C115.801 97.5171 117.524 92.2371 118.852 86.8457C118.912 86.46 118.989 86.1514 118.595 86.1514Z" fill="#2A9CC8"/>
<path d="M77.6391 245.443C78.9162 248.177 80.8876 253.423 84.2734 254.1C87.0934 254.657 87.1448 249.651 86.8448 248.169C86.6305 246.986 86.3562 245.82 86.0648 244.654C81.7791 243.103 79.8419 240.823 77.0048 237.626C76.0876 240.12 75.9162 241.774 77.6391 245.443Z" fill="#414355"/>
<path d="M86.9574 228.557C86.9574 228.257 85.0288 229.029 84.6688 229.08C83.5717 229.217 81.4288 230.794 80.786 230.794C80.1431 230.794 79.2603 231.84 78.2145 234.737C77.7688 235.869 77.3574 236.794 77.0488 237.634C80.006 241.92 83.3145 243.874 86.1088 244.663C85.7745 243.283 85.4145 241.903 85.1145 240.514C84.3174 236.949 87.3517 232.174 86.9574 228.557Z" fill="#FFA348"/>
<path d="M71.1852 236.571C71.6766 235.474 71.922 234.282 71.9042 233.08C71.8864 231.878 71.6059 230.694 71.0823 229.611C70.6902 228.998 70.1225 228.516 69.4531 228.228C68.7836 227.941 68.0433 227.861 67.328 228C67.2766 227.956 67.2149 227.925 67.1484 227.911C67.082 227.897 67.0131 227.9 66.9481 227.919C66.8831 227.939 66.8241 227.975 66.7767 228.023C66.7292 228.072 66.6948 228.132 66.6766 228.197C65.9909 230.289 64.5509 231.514 63.248 232.877C65.3995 238.243 67.2252 241.097 70.1995 244.406C69.8823 241.946 69.428 239.606 71.1852 236.571Z" fill="#FFA348"/>
<path d="M63.2137 232.903C62.4642 233.624 61.8155 234.443 61.2851 235.337C60.008 237.634 61.628 242.1 62.2023 244.474C62.8966 247.371 64.388 252.857 67.5337 252.857C69.968 252.857 70.0194 251.143 70.2766 249.429C70.4171 247.752 70.3798 246.066 70.1651 244.397C67.5337 240.857 65.3994 238.38 63.2137 232.903Z" fill="#414355"/>
<path d="M101.897 160.791C101.039 157.817 97.4308 157.551 94.868 157.226C90.2737 156.634 85.6708 156.454 81.0766 155.829C78.8051 155.52 75.7451 155.511 75.6423 158.4C75.635 158.502 75.6505 158.604 75.6875 158.698C75.7246 158.793 75.7823 158.879 75.8566 158.949C71.2966 162.283 69.6166 168.377 68.8708 173.743C68.3041 177.054 68.2809 180.436 68.8023 183.754C69.3594 186.729 72.1451 192.189 69.6594 197.314C68.0566 200.649 68.4337 203.023 69.308 206.537C70.5937 211.68 67.4994 214.294 65.8794 218.726C63.668 224.649 65.4594 232.877 70.2766 237C70.3483 237.069 70.4344 237.12 70.5287 237.151C70.6229 237.183 70.7229 237.192 70.8214 237.18C70.9199 237.168 71.0144 237.134 71.0981 237.08C71.1817 237.027 71.2525 236.956 71.3051 236.871C74.0375 232.522 76.4193 227.962 78.428 223.234C78.904 221.993 79.2963 220.722 79.6023 219.429C79.6023 225.017 78.968 228.394 78.1537 233.246C77.9308 234.609 78.3851 235.414 79.6451 235.397C82.7137 235.397 86.3394 234.737 87.6423 231.471C88.9451 228.206 89.2708 224.777 89.8108 221.434C90.5356 217.145 91.5377 212.908 92.8108 208.749C96.3508 196.877 100.525 185.537 102.051 173.186C102.548 169.174 103.002 164.734 101.897 160.791Z" fill="#414355"/>
<path d="M104.435 103.92C104.024 102.96 106.372 101.563 103.972 100.037C102.942 99.4473 101.826 99.0222 100.664 98.7772C90.498 97.2943 81.1638 106.097 74.4438 112.671C72.2323 114.831 69.4466 117.566 69.078 120.797C68.8209 123.026 70.9295 124.003 72.8409 124.011C72.6866 126.463 72.5666 128.717 74.0923 130.869C74.1206 130.963 74.1774 131.047 74.2552 131.109C80.5037 136.106 90.8752 121.903 94.4323 117.789C97.5952 114.137 100.921 110.203 102.764 105.694C103.167 104.734 104.864 104.94 104.435 103.92Z" fill="#414355"/>
<path d="M107.923 119.263C104.898 113.409 100.569 112.791 94.5262 111.917C80.5719 109.894 94.8176 86.5715 97.7148 79.4915C97.7445 79.3827 97.7371 79.2671 97.6936 79.163C97.6501 79.059 97.5731 78.9725 97.4748 78.9172C94.7319 77.2029 92.0405 75.3343 89.3233 73.5343H89.2376C88.9719 73.2515 88.4233 73.1829 88.2433 73.6029C82.7319 86.1772 78.0691 98.0143 78.1976 111.96C78.2662 119.871 79.4319 127.68 78.8919 135.6C78.3433 143.743 74.9919 151.431 72.0348 158.94C71.98 159.099 71.9835 159.273 72.0447 159.43C72.1059 159.587 72.2209 159.717 72.3691 159.797C79.0719 164.254 90.5405 165.369 98.3148 164.211C101.512 163.731 104.315 162.891 105.583 159.763C106.706 157.063 106.552 153.574 106.638 150.729C106.766 146.314 107.829 142.157 108.798 137.871C110.186 131.914 110.803 124.817 107.923 119.263Z" fill="#2A9CC8"/>
<path d="M105.001 74.7857C103.509 73.2514 101.126 74.94 98.7777 75.9257C101.572 73.4828 107.255 69.0685 103.801 67.08C101.641 65.82 98.9492 68.8457 96.8149 71.1085C97.3463 67.3628 98.9492 62.6828 97.8092 62.1085C95.8892 61.1485 94.5349 63.06 93.8835 64.3543C93.1206 65.88 93.0777 67.1914 92.6663 68.9657C92.2977 70.5514 91.1835 70.68 91.1835 68.5028C91.1835 65.6571 92.0406 64.2857 91.0549 61.6457C90.7463 60.84 89.7263 60.1628 89.1006 61.08C86.6149 64.74 85.9035 72.4371 88.3206 76.5085C88.4404 76.8769 88.6014 77.2306 88.8006 77.5628C90.052 80.04 91.8606 81.06 94.6206 81.1285C97.9704 81.0873 101.23 80.0357 103.972 78.1114C105.361 77.0314 106.286 76.1485 105.001 74.7857Z" fill="#FFA348"/>
<path d="M110.452 105.669C105.138 98.9058 96.352 98.1258 89.9834 103.637C85.852 107.066 86.7692 118.766 91.492 124.954C96.4806 131.494 104.461 130.329 109.492 124.594C113.872 119.666 114.635 111.009 110.452 105.669Z" fill="#FFA348"/>
<path d="M90.5735 177.549C89.1557 180.897 88.14 184.401 87.5478 187.989C87.2507 189.646 86.9907 191.306 86.7678 192.969C86.6161 194.821 86.3296 196.66 85.9107 198.471C85.0535 201.634 82.9707 204.231 81.6935 207.231C80.3135 210.463 79.8764 214.089 79.3021 217.517C79.2813 217.608 79.2964 217.703 79.3442 217.783C79.392 217.863 79.4688 217.921 79.5586 217.945C79.6484 217.97 79.7441 217.958 79.8257 217.914C79.9073 217.869 79.9685 217.794 79.9964 217.706C80.9735 214.354 80.9307 210.763 82.3878 207.54C83.7164 204.583 85.6964 202.011 86.6735 198.874C87.7192 195.523 88.0535 191.957 88.6792 188.511C89.291 184.915 90.2793 181.393 91.6278 178.003C91.8678 177.411 90.8392 176.974 90.5821 177.566L90.5735 177.549Z" fill="#2A9CC8"/>
<path d="M98.5717 107.006C98.5501 107.249 98.4583 107.481 98.3073 107.673C98.1564 107.865 97.953 108.009 97.7217 108.087C97.4904 108.166 97.2413 108.176 97.0046 108.115C96.768 108.055 96.554 107.927 96.3888 107.747C96.2235 107.567 96.1141 107.343 96.0739 107.102C96.0336 106.861 96.0642 106.614 96.162 106.39C96.2598 106.166 96.4205 105.975 96.6246 105.841C96.8288 105.707 97.0675 105.635 97.3117 105.634C97.6604 105.65 97.9887 105.803 98.2248 106.06C98.4609 106.317 98.5856 106.657 98.5717 107.006Z" fill="#414355"/>
<path d="M107.742 107.914C107.722 108.158 107.632 108.392 107.481 108.585C107.331 108.778 107.127 108.924 106.895 109.003C106.664 109.083 106.414 109.093 106.176 109.033C105.939 108.972 105.724 108.844 105.558 108.664C105.393 108.483 105.283 108.258 105.243 108.017C105.203 107.775 105.235 107.527 105.334 107.303C105.433 107.078 105.595 106.888 105.8 106.755C106.006 106.621 106.246 106.551 106.491 106.551C106.837 106.567 107.163 106.719 107.398 106.975C107.632 107.23 107.756 107.568 107.742 107.914Z" fill="#414355"/>
</svg>