<svg width="20" height="20" viewBox="0 0 20 20" fill="none" xmlns="http://www.w3.org/2000/svg">
<path fill-rule="evenodd" clip-rule="evenodd" d="M5.41732 2.5C5.64061 2.5 5.85455 2.58961 6.0112 2.74874L9.76119 6.55826C10.0841 6.88625 10.0799 7.41387 9.75192 7.73673C9.42393 8.0596 8.89631 8.05544 8.57344 7.72745L6.25065 5.3678L6.25065 16.6667C6.25065 17.1269 5.87756 17.5 5.41732 17.5C4.95708 17.5 4.58398 17.1269 4.58398 16.6667L4.58398 5.3678L2.2612 7.72745C1.93833 8.05544 1.41071 8.0596 1.08272 7.73673C0.754731 7.41387 0.750576 6.88625 1.07344 6.55826L4.82344 2.74874C4.98008 2.58961 5.19403 2.5 5.41732 2.5Z" fill="#B0B0B0"/>
<path fill-rule="evenodd" clip-rule="evenodd" d="M14.5833 2.5C15.0436 2.5 15.4167 2.8731 15.4167 3.33333L15.4167 14.6322L17.7395 12.2725C18.0623 11.9446 18.5899 11.9404 18.9179 12.2633C19.2459 12.5861 19.2501 13.1138 18.9272 13.4417L15.1772 17.2513C15.0206 17.4104 14.8066 17.5 14.5833 17.5C14.36 17.5 14.1461 17.4104 13.9895 17.2513L10.2395 13.4417C9.91659 13.1138 9.92075 12.5861 10.2487 12.2633C10.5767 11.9404 11.1043 11.9446 11.4272 12.2725L13.75 14.6322L13.75 3.33333C13.75 2.8731 14.1231 2.5 14.5833 2.5Z" fill="#B0B0B0"/>
</svg>