<svg id="Layer_11" data-name="Layer 11" xmlns="http://www.w3.org/2000/svg" viewBox="0 0 606.81 328.99"><defs><style>.cls-1{fill:#858fa9;}.cls-2{fill:#2a9cc8;}.cls-3{fill:#ffa348;}.cls-4{fill:#fcc18b;}.cls-5{fill:#414355;}.cls-6{font-size:8px;font-family:Lato-Thin, Lato;font-weight:200;opacity:0.5;}.cls-7{letter-spacing:-0.01em;}.cls-8{letter-spacing:-0.01em;}.cls-9{letter-spacing:-0.03em;}.cls-10{letter-spacing:-0.01em;}</style></defs><title>5illus-casier</title><path class="cls-1" d="M303.85,254.52c55.27.73,110.57.29,165.84.32,42.33,0,84.86,1.15,127.17-.43a.57.57,0,0,0,0-1.14c-28.11-1.05-56.32-.43-84.44-.43H452.76l-80,0c-23,0-45.95,0-68.93.27a.68.68,0,0,0,0,1.36Z" transform="translate(-158.59 -121)"/><path class="cls-1" d="M300.85,176.52c132.79,1.13,265.61.32,398.4.31,20.54,0,41.08.07,61.61-.42a.57.57,0,0,0,0-1.14c-66.24-1.58-132.61-.45-198.86-.43q-99.71,0-199.4.08c-20.58,0-41.17.06-61.75.24a.68.68,0,0,0,0,1.36Z" transform="translate(-158.59 -121)"/><path class="cls-1" d="M303.85,254.52c132.79,1.13,265.61.32,398.4.31,20.54,0,41.08.07,61.61-.42a.57.57,0,0,0,0-1.14c-66.24-1.58-132.61-.45-198.86-.43q-99.71,0-199.4.08c-20.58,0-41.17.06-61.75.24a.68.68,0,0,0,0,1.36Z" transform="translate(-158.59 -121)"/><path class="cls-1" d="M304.85,344.52c132.79,1.13,265.61.32,398.4.31,20.54,0,41.08.07,61.61-.42a.57.57,0,0,0,0-1.14c-66.24-1.58-132.61-.45-198.86-.43q-99.71,0-199.4.08c-20.58,0-41.17.06-61.75.24a.68.68,0,0,0,0,1.36Z" transform="translate(-158.59 -121)"/><path class="cls-2" d="M663.52,265.42l-1.33-.5c1.44-3.78.07-8.67-1.13-13-.5-1.79-1-3.48-1.25-5.05l-.27-1.52a49.1,49.1,0,0,1-1.06-8.88c0-6.51,1.79-12.51,3.5-18.32,2.25-7.65,4.38-14.88,2.83-23.2-.61-3.24-1.44-6.41-2.25-9.48-1.51-5.72-3.07-11.64-3.08-18A39.55,39.55,0,0,1,661.25,156a24.28,24.28,0,0,1,1.74-3.92,17.3,17.3,0,0,0,1.51-3.44l1.38.32a18.18,18.18,0,0,1-1.63,3.77,22.8,22.8,0,0,0-1.64,3.68,37.11,37.11,0,0,0-1.71,11.05c0,6.17,1.47,11.74,3,17.63.81,3.09,1.66,6.29,2.27,9.58,1.62,8.65-.66,16.38-2.87,23.86-1.68,5.71-3.42,11.61-3.43,17.93a47.66,47.66,0,0,0,1,8.61l.28,1.53c.27,1.51.73,3.16,1.22,4.92C663.69,256.08,665.12,261.2,663.52,265.42Z" transform="translate(-158.59 -121)"/><path class="cls-3" d="M709.54,131.28c-.49-.59-1.87-.5-1.87-.5l-46.75.31s-1.56-.25-2.15.58a2.49,2.49,0,0,0-.39,1.83l8,35.33a5.94,5.94,0,0,0,.54,1.84c.33.33,1.75.33,1.75.33H699a6.14,6.14,0,0,0,1.67-.41c.5-.34.67-1.88.67-1.88l8.28-35.49S710,131.78,709.54,131.28Z" transform="translate(-158.59 -121)"/><path class="cls-2" d="M647,188.67c.92,3.43,8.93,13.92,12.3,7.83,3.86-6.95-8.25-7.83-12.3-7.83" transform="translate(-158.59 -121)"/><path class="cls-2" d="M677,215.67c.92,3.43,8.93,13.92,12.3,7.83,3.86-6.95-8.25-7.83-12.3-7.83" transform="translate(-158.59 -121)"/><path class="cls-2" d="M685.22,160.73c-1.72,2.91-11.21,10.48-12.21,4.06-1.15-7.34,8.93-5.08,12.21-4.06" transform="translate(-158.59 -121)"/><path class="cls-2" d="M680.59,203.87c-2.17,2.58-12.78,8.49-12.72,2,.08-7.42,9.65-3.54,12.72-2" transform="translate(-158.59 -121)"/><path class="cls-2" d="M644.75,233.42c-1.36,2.81-9.78,10.55-11.46,4.72-1.92-6.67,8.14-5.4,11.46-4.72" transform="translate(-158.59 -121)"/><path class="cls-2" d="M646.55,245.58c-1.16,2.33-8.43,8.65-9.95,3.81-1.75-5.55,7-4.4,9.95-3.81" transform="translate(-158.59 -121)"/><path class="cls-2" d="M661.35,224.24c-2.05,2.9-13.21,9.94-14.26,3.07-1.2-7.86,10.46-4.47,14.26-3.07" transform="translate(-158.59 -121)"/><path class="cls-2" d="M721.29,171.77c-.4,3.53-6.8,15.07-11,9.54-4.83-6.31,7-8.95,11-9.54" transform="translate(-158.59 -121)"/><path class="cls-2" d="M725,239.92c.5,2.55,4.82,10.33,6.65,5.81,2.08-5.16-4.46-5.81-6.65-5.81" transform="translate(-158.59 -121)"/><path class="cls-2" d="M663.77,263.93c0,1.95-2.27,9-4.65,6.52-2.73-2.8,2.77-5.7,4.65-6.52" transform="translate(-158.59 -121)"/><path class="cls-2" d="M643.69,258.51c-.51,2.38-5.61,9.87-8.15,5.83-2.91-4.63,5.37-5.68,8.15-5.83" transform="translate(-158.59 -121)"/><path class="cls-2" d="M726,194.67c.92,3.43,8.93,13.92,12.3,7.83,3.86-6.95-8.25-7.83-12.3-7.83" transform="translate(-158.59 -121)"/><path class="cls-2" d="M665.74,202.34a50,50,0,0,0-7.83.33c-2.29.34-6,3.14-4.81,6,2.3,5.33,11.19-6.46,13.14-6.33" transform="translate(-158.59 -121)"/><path class="cls-2" d="M674.74,239.34a50,50,0,0,0-7.83.33c-2.29.34-6,3.14-4.81,6,2.3,5.33,11.19-6.46,13.14-6.33" transform="translate(-158.59 -121)"/><path class="cls-2" d="M679.74,271.34a50,50,0,0,0-7.83.33c-2.29.34-6,3.14-4.81,6,2.3,5.33,11.19-6.46,13.14-6.33" transform="translate(-158.59 -121)"/><path class="cls-2" d="M678.74,287.34a50,50,0,0,0-7.83.33c-2.29.34-6,3.14-4.81,6,2.3,5.33,11.19-6.46,13.14-6.33" transform="translate(-158.59 -121)"/><path class="cls-2" d="M719.7,152a49.46,49.46,0,0,0-7.55,2.11c-2.15.85-5.17,4.43-3.31,6.94,3.46,4.66,9.41-8.85,11.35-9.17" transform="translate(-158.59 -121)"/><path class="cls-2" d="M648.13,180.67a45,45,0,0,0-7.06.3c-2.06.31-5.44,2.87-4.33,5.49,2.08,4.87,10.07-5.91,11.84-5.79" transform="translate(-158.59 -121)"/><path class="cls-2" d="M641.13,200.67a45,45,0,0,0-7.06.3c-2.06.31-5.44,2.87-4.33,5.49,2.08,4.87,10.07-5.91,11.84-5.79" transform="translate(-158.59 -121)"/><path class="cls-2" d="M640.13,218.67a45,45,0,0,0-7.06.3c-2.06.31-5.44,2.87-4.33,5.49,2.08,4.87,10.07-5.91,11.84-5.79" transform="translate(-158.59 -121)"/><path class="cls-2" d="M685.74,187.34a50,50,0,0,0-7.83.33c-2.29.34-6,3.14-4.81,6,2.3,5.33,11.19-6.46,13.14-6.33" transform="translate(-158.59 -121)"/><path class="cls-2" d="M674.74,227.34a50,50,0,0,0-7.83.33c-2.29.34-6,3.14-4.81,6,2.3,5.33,11.19-6.46,13.14-6.33" transform="translate(-158.59 -121)"/><path class="cls-2" d="M658.9,239.18a40.46,40.46,0,0,0-6.1,1.85c-1.74.72-4.13,3.69-2.58,5.69,2.89,3.74,7.51-7.34,9.07-7.64" transform="translate(-158.59 -121)"/><path class="cls-2" d="M662.9,257.18a40.46,40.46,0,0,0-6.1,1.85c-1.74.72-4.13,3.69-2.58,5.69,2.89,3.74,7.51-7.34,9.07-7.64" transform="translate(-158.59 -121)"/><path class="cls-2" d="M649,164.6a28.08,28.08,0,0,0-5.19-.36c-1.54.09-4.29,2-3.75,4.42,1,4.45,8-4.28,9.27-4" transform="translate(-158.59 -121)"/><path class="cls-2" d="M726,237.6a28.08,28.08,0,0,0-5.19-.36c-1.54.09-4.29,2-3.75,4.42,1,4.45,8-4.28,9.27-4" transform="translate(-158.59 -121)"/><path class="cls-2" d="M728.74,223.34a50,50,0,0,0-7.83.33c-2.29.34-6,3.14-4.81,6,2.3,5.33,11.19-6.46,13.14-6.33" transform="translate(-158.59 -121)"/><path class="cls-2" d="M682.67,149.77a32.52,32.52,0,0,1,6.08.18c1.79.27,4.75,2.77,3.85,5.4-1.69,4.91-8.8-5.72-10.32-5.57" transform="translate(-158.59 -121)"/><path class="cls-2" d="M676.83,294.53a33.49,33.49,0,0,1,5.79,1.89c1.63.76,3.77,4,2.16,6.27-3,4.23-6.83-8-8.32-8.26" transform="translate(-158.59 -121)"/><path class="cls-2" d="M728.74,231.67a32.54,32.54,0,0,1,6.08.31c1.78.3,4.69,2.86,3.73,5.48-1.78,4.87-8.68-5.91-10.19-5.79" transform="translate(-158.59 -121)"/><path class="cls-2" d="M680.36,281.34a50,50,0,0,1,7.83.33c2.29.34,6,3.14,4.81,6-2.3,5.33-11.19-6.46-13.14-6.33" transform="translate(-158.59 -121)"/><path class="cls-2" d="M648.74,153.15a33.27,33.27,0,0,1,5.25,1.64c1.48.65,3.5,3.31,2.13,5.11-2.56,3.37-6.37-6.58-7.72-6.84" transform="translate(-158.59 -121)"/><path class="cls-2" d="M646.53,250.56a33.2,33.2,0,0,1,4.84,2.61c1.34.92,2.82,3.91,1.13,5.42-3.16,2.82-5-7.67-6.28-8.18" transform="translate(-158.59 -121)"/><path class="cls-2" d="M663.56,261.31a33.59,33.59,0,0,1,5.32,1.4c1.52.58,3.66,3.14,2.37,5-2.4,3.48-6.67-6.28-8-6.48" transform="translate(-158.59 -121)"/><path class="cls-2" d="M661.36,249.34a50,50,0,0,1,7.83.33c2.29.34,6,3.14,4.81,6-2.3,5.33-11.19-6.46-13.14-6.33" transform="translate(-158.59 -121)"/><path class="cls-2" d="M719.48,161a50.69,50.69,0,0,1,7.52,2.23c2.13.88,5.09,4.51,3.2,7-3.53,4.62-9.28-9-11.21-9.33" transform="translate(-158.59 -121)"/><path class="cls-2" d="M730.48,179a50.69,50.69,0,0,1,7.52,2.23c2.13.88,5.09,4.51,3.2,7-3.53,4.62-9.28-9-11.21-9.33" transform="translate(-158.59 -121)"/><path class="cls-2" d="M664.35,213a40.06,40.06,0,0,1,5.71,2.05c1.61.78,3.74,3.71,2.17,5.54-2.93,3.41-6.78-7.35-8.25-7.7" transform="translate(-158.59 -121)"/><path class="cls-2" d="M662.05,179.59a41.55,41.55,0,0,1,7,.31c2,.31,5.36,2.93,4.26,5.61-2,5-9.93-6-11.66-5.92" transform="translate(-158.59 -121)"/><path class="cls-2" d="M687.36,179.34a50,50,0,0,1,7.83.33c2.29.34,6,3.14,4.81,6-2.3,5.33-11.19-6.46-13.14-6.33" transform="translate(-158.59 -121)"/><path class="cls-2" d="M727.36,214.34a50,50,0,0,1,7.83.33c2.29.34,6,3.14,4.81,6-2.3,5.33-11.19-6.46-13.14-6.33" transform="translate(-158.59 -121)"/><path class="cls-2" d="M639.3,208.27c2.34.84,5.85,0,8.52.66,2.85.71,6.72,4.7,3.93,7.8-5.64,6.27-9.61-6.3-12.54-8" transform="translate(-158.59 -121)"/><path class="cls-2" d="M678.24,257.78c2.83,1,7,.08,10.28.9,3.45.87,8.18,5.54,4.87,9.07-6.71,7.14-11.69-7.43-15.25-9.42" transform="translate(-158.59 -121)"/><path class="cls-2" d="M675.24,234.78c2.83,1,7,.08,10.28.9,3.45.87,8.18,5.54,4.87,9.07-6.71,7.14-11.69-7.43-15.25-9.42" transform="translate(-158.59 -121)"/><path class="cls-2" d="M683.24,196.78c2.83,1,7,.08,10.28.9,3.45.87,8.18,5.54,4.87,9.07-6.71,7.14-11.69-7.43-15.25-9.42" transform="translate(-158.59 -121)"/><path class="cls-2" d="M729,186.85c-2.94.66-7-.77-10.32-.35-3.53.45-8.79,4.51-5.93,8.42,5.8,7.9,12.5-6,16.28-7.51" transform="translate(-158.59 -121)"/><path class="cls-2" d="M723.61,204.59c-2.44,1.77-6.75,2-9.62,3.75-3.07,1.8-6.3,7.61-2.13,10.07,8.44,5,9.13-10.41,12-13.32" transform="translate(-158.59 -121)"/><path class="cls-2" d="M726.23,240.24l-1.41-.14a21.73,21.73,0,0,1,2-6.44,20.12,20.12,0,0,0,2-6.3c.36-4.24-.78-8.25-2.07-12-.43-1.23-1-2.45-1.46-3.63-1.25-2.89-2.54-5.87-2.49-9.32,0-2.85,1.51-6.34,3.07-10,2.5-5.94,5.09-12.08,2.16-16.18-.9-1.25-2.28-1.7-3.75-2.18-1.65-.54-3.53-1.16-4.72-3.06-1.29-2.07-1.21-4.47-1.13-6.79,0-.57,0-1.13,0-1.7,0-1.81,0-3.63.1-5.4.14-5.5.28-10.69-1-15.85-.93-3.71-3.91-12.48-11.5-13.66-3.09-.48-6.25-.84-7.94.48a3.81,3.81,0,0,0-1.33,2.82l-1.41-.14a5.17,5.17,0,0,1,1.87-3.8c2.14-1.66,5.63-1.29,9-.76,8.43,1.31,11.65,10.73,12.65,14.72,1.34,5.34,1.19,10.63,1,16.23,0,1.75-.09,3.57-.09,5.36,0,.58,0,1.17,0,1.75-.08,2.2-.15,4.29.91,6,.92,1.47,2.4,2,4,2.46s3.29,1.08,4.46,2.71c3.4,4.74.52,11.55-2,17.55-1.5,3.56-2.92,6.93-3,9.5,0,3.14,1.13,5.86,2.38,8.74.52,1.2,1,2.44,1.5,3.73,1.34,3.84,2.53,8,2.14,12.53a21.26,21.26,0,0,1-2.08,6.74A20.62,20.62,0,0,0,726.23,240.24Z" transform="translate(-158.59 -121)"/><path class="cls-2" d="M677.52,295.42l-1.33-.5c2.77-7.39,3.82-19.05,2.56-28.34-1-6.94-2.18-13.42-3.27-18.85-3.66-18.35,1-34.46,6-47.81,3-8,4.36-14.72,4.36-21.75,0-10.41-2.44-20.85-4.81-30.95l-.09-.41c-.25-1.06-.52-2.1-.78-3.13-1.34-5.22-2.61-10.15-1.08-15.66s4.28-6.06,5.77-5.85c3.1.46,5.95,4.73,5.87,8.81l-1.42,0c.07-3.37-2.24-7-4.65-7.37-1.77-.26-3.27,1.45-4.21,4.82-1.42,5.14-.2,9.9,1.09,14.93.27,1,.54,2.09.79,3.15l.09.41c2.39,10.18,4.86,20.71,4.85,31.28,0,7.21-1.38,14.07-4.45,22.25-7,18.65-8.77,32.72-5.9,47,1.08,5.44,2.32,12,3.27,18.93C681.24,274.42,680.85,286.51,677.52,295.42Z" transform="translate(-158.59 -121)"/><path class="cls-2" d="M643.15,260.16l-1.26-.64c2.58-5.1,4.13-8.65,3.92-15.09-.22-6.88-1.94-12.26-4.36-19.1-3.39-9.59-3.77-16.79-1.27-24.07.91-2.66,2.09-5.27,3.24-7.79a70.76,70.76,0,0,0,3.84-9.71c2.41-8.47,1.71-16.08,1-24.13-.62-6.67-1.26-13.56.06-20.92,2.08-11.57,9.27-13.44,12.26-13.7,3.26-.29,9.08.17,11.81,2.62a4.45,4.45,0,0,1,1.59,3.32l-1.42,0a3.08,3.08,0,0,0-1.11-2.3c-2.38-2.13-7.85-2.52-10.74-2.26-2.67.23-9.09,1.93-11,12.54-1.29,7.17-.66,14,0,20.53.73,7.84,1.48,15.93-1,24.66a72.26,72.26,0,0,1-3.91,9.9c-1.13,2.5-2.3,5.07-3.19,7.67-2.39,6.95-2,13.88,1.26,23.14,2.46,7,4.22,12.44,4.45,19.52C647.45,251.16,645.83,254.86,643.15,260.16Z" transform="translate(-158.59 -121)"/><rect class="cls-2" x="202.41" y="230" width="128" height="69"/><path class="cls-1" d="M409,360h4a1.5,1.5,0,0,0,0-3h-4c-1,0-1,3,0,3Z" transform="translate(-158.59 -121)"/><path class="cls-1" d="M400,360h4a1.5,1.5,0,0,0,0-3h-4c-1,0-1,3,0,3Z" transform="translate(-158.59 -121)"/><path class="cls-1" d="M460,359.67s2.17.14,3.18.17c1.93.05,1.84-2.95-.09-3-1,0-1.09-.17-3.09-.17-1,0-1,3,0,3Z" transform="translate(-158.59 -121)"/><path class="cls-1" d="M452,359.67s2.17.14,3.18.17c1.93.05,1.84-2.95-.09-3-1,0-1.09-.17-3.09-.17-1,0-1,3,0,3Z" transform="translate(-158.59 -121)"/><path class="cls-1" d="M418,359.67s2.17.14,3.18.17c1.93.05,1.84-2.95-.09-3-1,0-1.09-.17-3.09-.17-1,0-1,3,0,3Z" transform="translate(-158.59 -121)"/><path class="cls-1" d="M391,359.67s2.17.14,3.18.17c1.93.05,1.84-2.95-.09-3-1,0-1.09-.17-3.09-.17-1,0-1,3,0,3Z" transform="translate(-158.59 -121)"/><path class="cls-1" d="M381,359.67s2.17.14,3.18.17c1.93.05,1.84-2.95-.09-3-1,0-1.09-.17-3.09-.17-1,0-1,3,0,3Z" transform="translate(-158.59 -121)"/><path class="cls-3" d="M467.94,390.37c-1.1-7.11-8.83-17.22-16.83-15.12-3.51-.26-7.57.73-10,2.88-4.24,3.8-5,8.13-5.18,13.71-.32,9.36,6.07,18.32,16.22,16.88,4-.57,8.94-1.78,12.14-4.43C468,401.26,468.6,394.65,467.94,390.37Zm-3.53,9.73c-1.34,3.09-5,4.5-8,5.52-8.93,3.05-16.92-.77-18.31-10.36-.62-4.25-.45-8.91,1.42-12.84,1.58-3.33,5.88-5.26,9.88-5.58a.69.69,0,0,0,.82.57c6.92-.85,12,4,14.33,10.16C466.18,392,466.34,395.64,464.41,400.1Z" transform="translate(-158.59 -121)"/><path class="cls-3" d="M412.4,382.22c-2.93-4.31-5.69-6.56-10.94-7.32-3.21-.47-6.9-.78-9.73,1.13a.79.79,0,0,0-.29.43c-3.87,1.06-6.63,4.11-8.67,7.44-3,5-1.79,10.43-.06,15.58,3.29,9.8,16,11.1,24.13,7.12,4.17-2.05,7.24-6.89,8.6-11.16C416.91,390.8,415,386.06,412.4,382.22Zm-3.58,19.09c-5.37,6.77-19,6.15-23.43-1.3a16,16,0,0,1,6.41-22.64.73.73,0,0,0,.3,0c5.31-.56,11.12-.57,15.41,3,2,1.65,3.28,4.65,4.35,6.88C414.42,392.6,412.14,397.13,408.82,401.31Z" transform="translate(-158.59 -121)"/><path class="cls-3" d="M401.64,388.67a4,4,0,0,0-2.94-2.15,3,3,0,0,0-2.38.62,2.39,2.39,0,0,0-.91.3,6.45,6.45,0,0,0-1.42,1.39,3.9,3.9,0,0,0-.71,3.67c.75,2.38,3.71,4,6.06,2.71A4.84,4.84,0,0,0,401.64,388.67Zm-3.28,5.6c-2.2.87-4.43-1.51-4-3.59a4.41,4.41,0,0,1,1.08-1.93.47.47,0,0,0,.52,0,5.93,5.93,0,0,1,1.91-1,2.66,2.66,0,0,1,2.71,1.53C401.75,391.29,400.23,393.52,398.36,394.27Z" transform="translate(-158.59 -121)"/><path class="cls-3" d="M455.64,388.67a4,4,0,0,0-2.94-2.15,3,3,0,0,0-2.38.62,2.39,2.39,0,0,0-.91.3,6.45,6.45,0,0,0-1.42,1.39,3.9,3.9,0,0,0-.71,3.67c.75,2.38,3.71,4,6.06,2.71A4.84,4.84,0,0,0,455.64,388.67Zm-3.28,5.6c-2.2.87-4.43-1.51-4-3.59a4.41,4.41,0,0,1,1.08-1.93.47.47,0,0,0,.52,0,5.93,5.93,0,0,1,1.91-1,2.66,2.66,0,0,1,2.71,1.53C455.75,391.29,454.23,393.52,452.36,394.27Z" transform="translate(-158.59 -121)"/><path class="cls-4" d="M378.87,365.81c2.55-1.06,7.33-.11,10.09-.12q6.48,0,13,0c8.6,0,17.19.11,25.78-.16s17.26-.18,25.87,0c4.09.07,8.18.21,12.28.24,2.06,0,4.43.52,6.34-.36,1.36-.63.17-2.69-1.19-2-2.38,1.17-7.78.13-10.38.1-4.09-.05-8.18-.15-12.28-.17-8.6,0-17.18.06-25.78.24-8.77.18-17.55,0-26.32,0q-6.12,0-12.25,0c-1.75,0-4.35-.55-5.9.5-.89.6-.34,2.3.77,1.84Z" transform="translate(-158.59 -121)"/><rect class="cls-4" x="299.41" y="96" width="54" height="34"/><rect class="cls-3" x="311.41" y="102" width="30" height="7"/><rect class="cls-4" x="402.41" y="186" width="54" height="34"/><rect class="cls-3" x="414.41" y="192" width="30" height="7"/><rect class="cls-4" x="194.41" width="73" height="52"/><rect class="cls-3" x="212.41" y="6" width="37" height="7"/><rect class="cls-4" x="274.41" width="73" height="52"/><rect class="cls-3" x="292.41" y="6" width="37" height="7"/><rect class="cls-4" x="382.41" width="73" height="52"/><rect class="cls-3" x="400.41" y="6" width="37" height="7"/><rect class="cls-4" x="360.41" y="78" width="73" height="52"/><rect class="cls-3" x="378.41" y="84" width="37" height="7"/><rect class="cls-4" x="231.41" y="168" width="73" height="52"/><rect class="cls-3" x="249.41" y="174" width="37" height="7"/><rect class="cls-4" x="453.41" y="247" width="73" height="52"/><rect class="cls-3" x="471.41" y="253" width="37" height="7"/><path class="cls-4" d="M277.65,431.63c-2-2.21-4-2.72-6.82-3.29-1.91-.38-3.81-.74-5.71-1.14-3.81-.82-5-3.81-6.63-6.9-.45-.84-6.53,1.27-9,1.5-1.13.11-3.71.46-3.86.9-1.12,3.28-.36,6.75-.52,10.14-.13,2.85-.3,3.72,2.79,4.37a100.68,100.68,0,0,0,19.76,1.94c3,0,6.26.24,8.64-2C277.74,435.85,279.36,433.52,277.65,431.63Z" transform="translate(-158.59 -121)"/><path class="cls-4" d="M173.17,370.52c-2.83,1.49-6.43,1.43-9.37,2.8-1.89.88-2.22,4-2.56,5.78-1.56,8.12-4.54,16.92-1,25,2.38,5.3,7.76-3,8.74-4.79,3.87-7.29,4.69-16.62,14.63-18.14C184.52,381,173.53,370.33,173.17,370.52Z" transform="translate(-158.59 -121)"/><path class="cls-5" d="M254,292.46a66,66,0,0,1,15,.71c5.81.85,10.2.41,16,1.54,4.51.89,8.24-2.51,8.62,2.38.53,6.64-1.09,18.13-2,24.62-1.89,13.45-3.65,27.36-7.75,40.57-4.41,14.18-8.82,28.08-15.91,41.56-2.92,5.56-3.86,12.05-6.75,17.71-2.8,5.49-11.76,2.13-17.26,3.92-.32-5.13,1.59-9.12,3.28-14,4.56-13,7.13-26.73,12.05-39.65a70.23,70.23,0,0,0,4.23-16.14c.76-5.19,1.25-25-.63-24.87-1.62-.38-12.45,19.78-21,28.07-7.67,7.46-19.49,9.71-28.76,13.51a135,135,0,0,1-18.25,6.49c-5.76,1.44-9.39,2.63-14,6-1.89-1.63-3.12-5.19-4.75-7.35a23.41,23.41,0,0,0-6.2-5.94c1.54-.6,2.24-1.87,3.54-2.82a47.22,47.22,0,0,1,6-3.34c4.16-2.19,8.14-4.32,12.42-6.25,7.08-3.17,14.06-5.62,21.32-8.06,5.54-1.87,11.11-3.2,16.32-5.69,5.67-2.71,5.78-8.27,7.27-13.91,1.78-6.76,3.71-13.69,5.66-20.41,1.32-4.58,4.79-14.64,6.54-16.76S254,292.46,254,292.46Z" transform="translate(-158.59 -121)"/><path class="cls-3" d="M354.92,154.28c-1.48-1.93-3.06-1.92-4.57-1a1,1,0,0,0-.9.17c-2,1.58-3.5,3.87-5.2,5.77-2.94,3.3-5.81,6.57-8.56,10a103.67,103.67,0,0,1-8.31,8.59c-3.43,3.4-6.17,7.41-9.24,11.12-5.55,6.7-10.92,13.59-15.92,20.73-2.27,3.24-4.49,6.55-6.52,10s-3.61,7.58-7,9.9a.39.39,0,0,0-.16.23,6.65,6.65,0,0,1-3.24.67c-2.53-.11-13.45.11-15.54.29-1.27.12-1.74-1.38-2-1.16-5.29,3.89-10.3,6.48-14.84,11.41-5.3,5.77-11,11.1-16.53,16.61-6.25,6.18-11.8,13.05-17.56,19.68-2.18,2.51-4.19,5.68-6.11,8.4-1.8,2.55-4.13,4.68-5.78,7.33-.44.7,3.94,7.21,3.81,7.31-.55.42.16,1.29.73.94,3.22-1.94,5.65-4.62,8.3-7.24,4.45-4.41,8.93-8.81,13.72-12.87,6.3-5.34,13.06-10.63,17.74-17.54a93.38,93.38,0,0,0-1.66,11.28q-.88,10.92-2,21.81a.86.86,0,0,0,.09.47.46.46,0,0,0,.13.21.71.71,0,0,0,.14.1s0,0,.07.05h0l.15.05c3,1.22,6.19.78,9.41.75,5.74-.05,11.29.37,17,.55,3.81.13,7.44-1,11.28-.93,2,0,5.09.58,7.09-.24A1.28,1.28,0,0,0,294,297c1.88-3,.73-8.35.73-11.69,0-5.85.54-11.68.42-17.53-.11-5.48.72-10.79.86-16.22.07-2.92.66-6,.15-8.86,1.87-1.66,3.06-3.87,4.82-5.67a81.9,81.9,0,0,0,7.75-9.85c5.64-8,11.5-15.61,16.88-23.75,5.11-7.71,11.38-14.4,16.52-22.05,2.74-4,5.34-8.2,8.15-12.21,2.48-3.55,4-7.7,6.41-11.35C357.25,157,355.35,154.83,354.92,154.28Z" transform="translate(-158.59 -121)"/><path class="cls-5" d="M271.35,178.5c-3.66,1.67-7.9,11.37-9.28,19.15a29.58,29.58,0,0,0,2.54,17.68,59.6,59.6,0,0,1,2.53,7.39,12.77,12.77,0,0,1,1.05,3.94c0,.8-1.36,3.78-1.25,4.59a87.24,87.24,0,0,0,10.83-.41c1.75-.12,5.75-.09,6-.5a20.55,20.55,0,0,1,3-4.38c2.57-2.32,5.68-3.81,7.67-6.8a26.84,26.84,0,0,0,3.58-8.49,23,23,0,0,0,.34-9.65c-.53-3-2.55-5.7-2.88-8.68-.24-2.12,3.5-3.83,2.17-6.5-.88-1.77-5.87.78-8-.67-2.68-1.87-4.49-4.79-7.37-6.46C280.26,177.49,275,176.84,271.35,178.5Z" transform="translate(-158.59 -121)"/><path class="cls-5" d="M353.52,156.92c-1.7-1.15-3.57-1.31-5.33-2.17,3.28-4.34,1.48-8.51,2.08-14.91.25-2.67,1.08-4.59,2.67-3.67,1.09.63,1.42,3.37,1.89,4.57.61,1.58.95.81,2-.22,2.67-2.53,5.07-5.74,8.65-7.06,2.78-1,3.49.69,1.85,2.75-1.19,1.5-3.19,3.4-3.74,5.23,1.78.33,8.23-7,9.61-3.23,1.1,3.06-6.6,5.57-7.74,8,1.21.2,2.6-.53,3.72-.94,2.23-.83,4.9-1.7,5.39-.41.84,2.16-4.09,4-4.75,4.28-2.35,1.06-4.14,2.91-6,4.6a13.26,13.26,0,0,1-5.62,3.09c-1,.28-1.81,1.72-2.38,2Z" transform="translate(-158.59 -121)"/><path class="cls-5" d="M210.6,302c-2.85,1.63-5.42.89-7.5,1.09-3.54.36-8.38,7.15-12.15,4.19-2.68-2.09-1.09-4.86.49-6.61a25.88,25.88,0,0,1,4.91-4.5c2-1.3,5.26-1.12,7.5-1.71,2.42-.65,2.67-1.81,4.59-3.46-.42,2.43,1.58,7.67,4.83,8.67A8.8,8.8,0,0,1,210.6,302Z" transform="translate(-158.59 -121)"/><path class="cls-2" d="M283.85,180.84c.57,4.52-3,9.33-1.66,14.66,1.28,5.12,1.16,11.31-1.65,15.78-3.11,5-4.18,6.08-6.69,11.56-1.79,3.93.67,9.33-7.66,14.33-5.52,3.31-16.58,2-23.34-.33s-11.18-5.48-11.75-11.75c-1-11,11-8.11,15.42-19.59,2.77-7.19-2-24.5,17.33-30.33C268,173.91,282.85,172.84,283.85,180.84Z" transform="translate(-158.59 -121)"/><text class="cls-6" transform="translate(201.65 315.13) rotate(-0.43)">©<tspan class="cls-7" x="6.77" y="0">O</tspan><tspan x="12.97" y="0">pen </tspan><tspan class="cls-8" x="28.09" y="0">D</tspan><tspan x="34.07" y="0">igital </tspan><tspan class="cls-9" x="51.97" y="0">E</tspan><tspan x="56.4" y="0">duc</tspan><tspan class="cls-10" x="68.88" y="0">a</tspan><tspan x="72.66" y="0">tion</tspan></text></svg>