<svg width="350" height="250" viewBox="0 0 350 250" fill="none" xmlns="http://www.w3.org/2000/svg">
<g clip-path="url(#clip0_3355_166752)">
<path d="M83.7846 107.111C115.664 107.533 147.56 107.279 179.439 107.296C203.854 107.296 228.385 107.96 252.789 107.048C252.876 107.048 252.96 107.013 253.021 106.951C253.083 106.889 253.118 106.806 253.118 106.718C253.118 106.631 253.083 106.547 253.021 106.486C252.96 106.424 252.876 106.389 252.789 106.389C236.575 105.783 220.304 106.141 204.085 106.141H169.674H123.531C110.265 106.141 97.0276 106.141 83.7731 106.297C83.669 106.297 83.5693 106.338 83.4957 106.412C83.4222 106.485 83.3809 106.585 83.3809 106.69C83.3809 106.794 83.4222 106.894 83.4957 106.967C83.5693 107.041 83.669 107.082 83.7731 107.082L83.7846 107.111Z" fill="#858FA9"/>
<path d="M82.0543 62.0642C158.646 62.7168 235.255 62.249 311.846 62.2433C323.693 62.2433 335.541 62.2837 347.382 62.0007C347.469 62.0007 347.553 61.966 347.615 61.9043C347.676 61.8425 347.711 61.7588 347.711 61.6715C347.711 61.5842 347.676 61.5005 347.615 61.4387C347.553 61.377 347.469 61.3423 347.382 61.3423C309.176 60.4298 270.894 61.0824 232.682 61.094C194.341 61.094 156.004 61.1094 117.671 61.1402C105.801 61.1402 93.9246 61.1748 82.0543 61.2788C81.9503 61.2788 81.8505 61.3202 81.777 61.3938C81.7034 61.4675 81.6621 61.5673 81.6621 61.6715C81.6621 61.7757 81.7034 61.8755 81.777 61.9492C81.8505 62.0228 81.9503 62.0642 82.0543 62.0642Z" fill="#858FA9"/>
<path d="M83.7848 107.111C160.376 107.764 236.985 107.296 313.577 107.29C325.424 107.29 337.271 107.331 349.112 107.048C349.2 107.048 349.283 107.013 349.345 106.951C349.407 106.889 349.441 106.806 349.441 106.718C349.441 106.631 349.407 106.547 349.345 106.486C349.283 106.424 349.2 106.389 349.112 106.389C310.906 105.477 272.625 106.129 234.413 106.141C196.072 106.141 157.735 106.156 119.401 106.187C107.531 106.187 95.6551 106.222 83.7848 106.326C83.6808 106.326 83.581 106.367 83.5074 106.441C83.4339 106.514 83.3926 106.614 83.3926 106.718C83.3926 106.823 83.4339 106.922 83.5074 106.996C83.581 107.07 83.6808 107.111 83.7848 107.111Z" fill="#858FA9"/>
<path d="M84.361 159.088C160.952 159.741 237.561 159.273 314.153 159.267C326 159.267 337.847 159.308 349.689 159.025C349.776 159.025 349.859 158.99 349.921 158.928C349.983 158.867 350.017 158.783 350.017 158.696C350.017 158.608 349.983 158.525 349.921 158.463C349.859 158.401 349.776 158.366 349.689 158.366C311.482 157.454 273.201 158.107 234.989 158.118C196.648 158.118 158.311 158.134 119.978 158.164C108.107 158.164 96.2312 158.199 84.361 158.303C84.2569 158.303 84.1572 158.344 84.0836 158.418C84.0101 158.492 83.9688 158.592 83.9688 158.696C83.9688 158.8 84.0101 158.9 84.0836 158.973C84.1572 159.047 84.2569 159.088 84.361 159.088Z" fill="#858FA9"/>
<path d="M291.237 113.406L290.47 113.118C291.301 110.934 290.51 108.11 289.818 105.61C289.53 104.576 289.241 103.6 289.097 102.693L288.941 101.815C288.582 100.128 288.378 98.4115 288.33 96.6869C288.33 92.9272 289.363 89.4621 290.349 86.1067C291.647 81.6886 292.875 77.5131 291.981 72.7081C291.629 70.8369 291.151 69.0061 290.683 67.2331C289.812 63.9297 288.913 60.5108 288.907 56.8377C288.92 54.5914 289.264 52.3593 289.928 50.2135C290.195 49.4307 290.531 48.6731 290.931 47.9496C291.293 47.321 291.585 46.6548 291.802 45.9629L292.598 46.1477C292.368 46.9067 292.053 47.6371 291.658 48.325C291.281 49.0041 290.964 49.7153 290.712 50.4503C290.063 52.5154 289.731 54.667 289.726 56.8319C289.726 60.3952 290.574 63.6121 291.456 67.0137C291.923 68.7982 292.414 70.6463 292.766 72.5464C293.7 77.542 292.385 82.0062 291.11 86.3261C290.141 89.6238 289.138 93.0312 289.132 96.6812C289.173 98.3528 289.366 100.017 289.709 101.654L289.87 102.537C290.026 103.409 290.291 104.362 290.574 105.379C291.335 108.012 292.16 110.969 291.237 113.406Z" fill="#2A9CC8"/>
<path d="M317.78 35.9369C317.498 35.5961 316.702 35.6481 316.702 35.6481L289.737 35.8271C289.737 35.8271 288.837 35.6828 288.497 36.1621C288.288 36.4717 288.207 36.8508 288.272 37.219L292.886 57.6229C292.932 57.9917 293.037 58.3506 293.198 58.6856C293.388 58.8762 294.207 58.8762 294.207 58.8762H311.701C312.032 58.8429 312.356 58.7632 312.664 58.6394C312.953 58.443 313.051 57.5536 313.051 57.5536L317.827 37.0573C317.827 37.0573 318.046 36.2256 317.78 35.9369Z" fill="#FFA348"/>
<path d="M281.709 69.0811C282.24 71.062 286.86 77.1202 288.803 73.6031C291.03 69.5893 284.045 69.0811 281.709 69.0811Z" fill="#2A9CC8"/>
<path d="M299.012 84.6743C299.542 86.6552 304.162 92.7135 306.106 89.1963C308.333 85.1825 301.348 84.6743 299.012 84.6743Z" fill="#2A9CC8"/>
<path d="M303.753 52.9452C302.761 54.6258 297.287 58.9976 296.711 55.2899C296.047 51.0509 301.861 52.3561 303.753 52.9452Z" fill="#2A9CC8"/>
<path d="M301.083 77.8596C299.831 79.3496 293.712 82.7628 293.746 79.0147C293.792 74.7294 299.312 76.9702 301.083 77.8596Z" fill="#2A9CC8"/>
<path d="M280.411 94.9254C279.627 96.5483 274.77 101.018 273.801 97.6513C272.694 93.7992 278.496 94.5327 280.411 94.9254Z" fill="#2A9CC8"/>
<path d="M281.449 101.948C280.78 103.294 276.587 106.944 275.71 104.148C274.701 100.943 279.748 101.607 281.449 101.948Z" fill="#2A9CC8"/>
<path d="M289.986 89.6237C288.803 91.2985 282.366 95.3643 281.761 91.3967C281.069 86.8574 287.794 88.8152 289.986 89.6237Z" fill="#2A9CC8"/>
<path d="M324.557 59.321C324.326 61.3597 320.635 68.0243 318.212 64.8306C315.426 61.1864 322.25 59.6618 324.557 59.321Z" fill="#2A9CC8"/>
<path d="M326.697 98.6792C326.986 100.152 329.477 104.645 330.533 102.035C331.733 99.0546 327.96 98.6792 326.697 98.6792Z" fill="#2A9CC8"/>
<path d="M291.382 112.546C291.382 113.672 290.073 117.743 288.7 116.311C287.125 114.694 290.298 113.019 291.382 112.546Z" fill="#2A9CC8"/>
<path d="M279.799 109.416C279.505 110.79 276.564 115.116 275.098 112.782C273.42 110.109 278.196 109.502 279.799 109.416Z" fill="#2A9CC8"/>
<path d="M327.275 72.5464C327.806 74.5273 332.426 80.5855 334.37 77.0684C336.596 73.0546 329.611 72.5464 327.275 72.5464Z" fill="#2A9CC8"/>
<path d="M292.517 76.9758C291.009 76.921 289.499 76.9847 288.001 77.1664C286.68 77.3628 284.54 78.9799 285.226 80.6316C286.553 83.7098 291.68 76.9008 292.805 76.9758" fill="#2A9CC8"/>
<path d="M297.708 98.3442C296.2 98.2894 294.69 98.3531 293.192 98.5348C291.871 98.7312 289.731 100.348 290.418 102C291.744 105.078 296.872 98.2692 297.997 98.3442" fill="#2A9CC8"/>
<path d="M300.593 116.825C299.085 116.77 297.575 116.834 296.077 117.016C294.756 117.212 292.616 118.829 293.302 120.481C294.629 123.559 299.757 116.75 300.881 116.825" fill="#2A9CC8"/>
<path d="M300.015 126.065C298.507 126.011 296.997 126.074 295.499 126.256C294.178 126.452 292.038 128.069 292.724 129.721C294.051 132.799 299.179 125.99 300.303 126.065" fill="#2A9CC8"/>
<path d="M323.642 47.9033C322.16 48.1935 320.704 48.6009 319.287 49.1219C318.047 49.6128 316.305 51.6803 317.378 53.1299C319.373 55.8212 322.805 48.0188 323.924 47.834" fill="#2A9CC8"/>
<path d="M282.36 64.4608C281 64.4116 279.638 64.4695 278.288 64.6341C277.099 64.8131 275.15 66.2916 275.79 67.8047C276.99 70.6172 281.598 64.3915 282.619 64.4608" fill="#2A9CC8"/>
<path d="M278.323 76.0113C276.963 75.9621 275.601 76.0201 274.25 76.1846C273.062 76.3636 271.113 77.8421 271.753 79.3552C272.953 82.1678 277.561 75.942 278.582 76.0113" fill="#2A9CC8"/>
<path d="M277.746 86.4069C276.387 86.3576 275.025 86.4156 273.674 86.5801C272.486 86.7591 270.536 88.2376 271.177 89.7507C272.376 92.5633 276.985 86.3375 278.006 86.4069" fill="#2A9CC8"/>
<path d="M304.054 68.313C302.546 68.2581 301.036 68.3218 299.538 68.5036C298.217 68.6999 296.077 70.317 296.763 71.9687C298.09 75.0469 303.218 68.2379 304.342 68.313" fill="#2A9CC8"/>
<path d="M297.708 91.4141C296.2 91.3592 294.69 91.4229 293.192 91.6047C291.871 91.801 289.731 93.4181 290.418 95.0698C291.744 98.148 296.872 91.339 297.997 91.4141" fill="#2A9CC8"/>
<path d="M288.572 98.2518C287.373 98.5148 286.197 98.872 285.054 99.3203C284.05 99.7361 282.672 101.451 283.566 102.606C285.233 104.766 287.898 98.3673 288.797 98.1941" fill="#2A9CC8"/>
<path d="M290.879 108.647C289.68 108.91 288.504 109.268 287.361 109.716C286.357 110.132 284.978 111.847 285.872 113.002C287.539 115.162 290.204 108.763 291.104 108.59" fill="#2A9CC8"/>
<path d="M282.862 55.1802C281.873 55.0183 280.871 54.9487 279.869 54.9723C278.981 55.0242 277.394 56.1273 277.706 57.5249C278.283 60.0949 282.32 55.0531 283.053 55.2148" fill="#2A9CC8"/>
<path d="M327.275 97.3393C326.285 97.1774 325.283 97.1078 324.281 97.1314C323.393 97.1834 321.807 98.2865 322.118 99.6841C322.695 102.254 326.732 97.2123 327.465 97.374" fill="#2A9CC8"/>
<path d="M328.855 89.104C327.347 89.0491 325.837 89.1129 324.338 89.2946C323.018 89.491 320.878 91.108 321.564 92.7597C322.891 95.838 328.018 89.0289 329.143 89.104" fill="#2A9CC8"/>
<path d="M302.282 46.6154C303.451 46.5403 304.625 46.5751 305.788 46.7194C306.821 46.8753 308.528 48.3191 308.009 49.838C307.034 52.6737 302.933 46.5346 302.057 46.6212" fill="#2A9CC8"/>
<path d="M298.915 130.218C300.059 130.479 301.176 130.845 302.254 131.309C303.194 131.748 304.429 133.62 303.5 134.931C301.77 137.373 299.561 130.31 298.701 130.16" fill="#2A9CC8"/>
<path d="M328.856 93.9146C330.028 93.8644 331.202 93.9244 332.363 94.0937C333.389 94.2669 335.068 95.7454 334.514 97.2585C333.487 100.071 329.508 93.8453 328.637 93.9146" fill="#2A9CC8"/>
<path d="M300.951 122.6C302.459 122.545 303.969 122.609 305.467 122.791C306.788 122.987 308.927 124.604 308.241 126.256C306.914 129.334 301.787 122.525 300.662 122.6" fill="#2A9CC8"/>
<path d="M282.712 48.5674C283.745 48.7988 284.758 49.1156 285.74 49.5145C286.593 49.8899 287.759 51.4261 286.968 52.4657C285.492 54.4119 283.294 48.6655 282.516 48.5154" fill="#2A9CC8"/>
<path d="M281.437 104.824C282.407 105.248 283.341 105.753 284.228 106.332C285.001 106.863 285.855 108.59 284.88 109.462C283.057 111.09 281.996 105.032 281.258 104.738" fill="#2A9CC8"/>
<path d="M291.261 111.033C292.304 111.218 293.33 111.488 294.329 111.841C295.206 112.176 296.44 113.654 295.696 114.729C294.312 116.738 291.849 111.102 291.082 110.986" fill="#2A9CC8"/>
<path d="M289.992 104.12C291.5 104.065 293.01 104.128 294.508 104.31C295.829 104.507 297.968 106.124 297.282 107.775C295.956 110.854 290.828 104.045 289.703 104.12" fill="#2A9CC8"/>
<path d="M323.513 53.101C324.99 53.4174 326.44 53.848 327.851 54.3888C329.079 54.8971 330.786 56.9935 329.696 58.4315C327.66 61.0997 324.344 53.2338 323.23 53.0432" fill="#2A9CC8"/>
<path d="M329.859 63.4965C331.336 63.813 332.786 64.2435 334.196 64.7844C335.425 65.2926 337.132 67.389 336.042 68.827C334.006 71.4952 330.689 63.6293 329.576 63.4387" fill="#2A9CC8"/>
<path d="M291.715 83.1324C292.841 83.4431 293.942 83.8389 295.009 84.3163C295.937 84.7668 297.166 86.4589 296.26 87.5158C294.57 89.4852 292.35 83.271 291.502 83.0688" fill="#2A9CC8"/>
<path d="M290.389 63.8372C291.737 63.783 293.088 63.8429 294.426 64.0163C295.58 64.1953 297.518 65.7084 296.884 67.2562C295.73 70.1438 291.156 63.791 290.158 63.8372" fill="#2A9CC8"/>
<path d="M304.988 63.6929C306.496 63.638 308.006 63.7017 309.504 63.8835C310.825 64.0798 312.965 65.6969 312.278 67.3486C310.952 70.4268 305.824 63.6178 304.699 63.6929" fill="#2A9CC8"/>
<path d="M328.06 83.9063C329.568 83.8514 331.078 83.9151 332.576 84.0968C333.897 84.2932 336.037 85.9103 335.35 87.562C334.024 90.6402 328.896 83.8312 327.771 83.9063" fill="#2A9CC8"/>
<path d="M277.267 80.4006C278.616 80.8858 280.641 80.4006 282.181 80.7818C283.825 81.1918 286.057 83.4962 284.448 85.2865C281.195 88.9076 278.905 81.6481 277.215 80.6663" fill="#2A9CC8"/>
<path d="M299.728 108.994C301.36 109.571 303.765 109.04 305.657 109.514C307.647 110.016 310.375 112.713 308.466 114.752C304.596 118.875 301.723 110.461 299.67 109.312" fill="#2A9CC8"/>
<path d="M297.997 95.7107C299.629 96.2882 302.035 95.7569 303.927 96.2305C305.916 96.7329 308.645 99.43 306.735 101.469C302.865 105.592 299.993 97.1776 297.939 96.0283" fill="#2A9CC8"/>
<path d="M302.61 73.7649C304.243 74.3424 306.648 73.8111 308.54 74.2847C310.53 74.7871 313.258 77.4842 311.349 79.5228C307.478 83.6463 304.606 75.2318 302.553 74.0825" fill="#2A9CC8"/>
<path d="M329.004 68.03C327.308 68.4112 324.967 67.5853 323.052 67.8279C321.016 68.0878 317.982 70.4325 319.631 72.6907C322.977 77.2531 326.841 69.2255 329.022 68.3535" fill="#2A9CC8"/>
<path d="M325.896 78.2754C324.489 79.2976 322.003 79.4304 320.348 80.4411C318.577 81.4807 316.714 84.8361 319.119 86.2568C323.987 89.1444 324.385 80.2448 326.041 78.5642" fill="#2A9CC8"/>
<path d="M327.407 98.8642L326.594 98.7834C326.783 97.4911 327.172 96.2362 327.747 95.0641C328.329 93.9233 328.719 92.6939 328.901 91.4257C329.108 88.977 328.451 86.6611 327.707 84.4954C327.459 83.785 327.13 83.0804 326.865 82.399C326.144 80.7299 325.4 79.0089 325.429 77.0164C325.429 75.3705 326.299 73.3549 327.199 71.2412C328.641 67.8107 330.135 64.2647 328.445 61.8968C327.926 61.1749 327.13 60.915 326.282 60.6378C325.33 60.326 324.246 59.9679 323.56 58.8706C322.816 57.6751 322.862 56.2891 322.908 54.9492C322.908 54.62 322.908 54.2966 322.908 53.9674C322.908 52.9221 322.908 51.871 322.966 50.8488C323.046 47.6724 323.127 44.675 322.389 41.695C321.852 39.5524 320.134 34.4875 315.756 33.806C313.974 33.5288 312.151 33.3209 311.176 34.0832C310.941 34.2852 310.751 34.5347 310.619 34.8154C310.486 35.096 310.415 35.4016 310.409 35.7118L309.596 35.631C309.611 35.2097 309.714 34.7963 309.9 34.418C310.086 34.0398 310.35 33.7052 310.674 33.4364C311.909 32.4777 313.922 32.6914 315.865 32.9975C320.728 33.754 322.585 39.1943 323.162 41.4986C323.935 44.5826 323.848 47.6377 323.739 50.8719C323.739 51.8825 323.687 52.9336 323.687 53.9674C323.687 54.3024 323.687 54.6431 323.687 54.9781C323.64 56.2486 323.6 57.4557 324.211 58.4432C324.742 59.2922 325.596 59.5983 326.519 59.8639C327.442 60.1296 328.416 60.4877 329.091 61.429C331.052 64.1665 329.391 68.0994 327.938 71.5646C327.072 73.6206 326.253 75.5668 326.207 77.0511C326.207 78.8645 326.859 80.4354 327.58 82.0987C327.88 82.7917 328.157 83.5078 328.445 84.2528C329.218 86.4705 329.904 88.873 329.679 91.4892C329.499 92.8446 329.093 94.1602 328.48 95.3817C327.946 96.4806 327.584 97.6552 327.407 98.8642Z" fill="#2A9CC8"/>
<path d="M299.311 130.732L298.544 130.443C300.142 126.175 300.747 119.441 300.02 114.076C299.444 110.068 298.763 106.326 298.134 103.19C296.023 92.5921 298.711 83.2882 301.595 75.5783C303.325 70.9581 304.11 67.0771 304.11 63.0171C304.11 57.005 302.702 50.9757 301.336 45.1427L301.284 44.9059C301.139 44.2937 300.984 43.6931 300.834 43.0982C300.061 40.0836 299.328 37.2364 300.211 34.0542C301.093 30.872 302.679 30.5544 303.539 30.6757C305.327 30.9413 306.971 33.4074 306.925 35.7637H306.106C306.146 33.8174 304.814 31.721 303.423 31.5073C302.403 31.3572 301.537 32.3447 300.995 34.291C300.176 37.2595 300.88 40.0085 301.624 42.9134C301.78 43.491 301.935 44.1205 302.08 44.7326L302.131 44.9694C303.51 50.8486 304.935 56.93 304.929 63.0344C304.929 67.1984 304.133 71.1602 302.362 75.8843C298.325 86.6552 297.304 94.781 298.959 103.028C299.582 106.17 300.297 109.958 300.845 113.961C301.457 118.604 301.232 125.586 299.311 130.732Z" fill="#2A9CC8"/>
<path d="M279.488 110.368L278.761 109.999C280.249 107.053 281.143 105.003 281.022 101.284C280.895 97.3105 279.903 94.2034 278.507 90.2532C276.552 84.7147 276.333 80.5565 277.775 76.3521C278.299 74.8159 278.98 73.3086 279.643 71.8532C280.519 70.0411 281.259 68.1668 281.858 66.2454C283.248 61.3538 282.844 56.9588 282.435 52.3098C282.077 48.4577 281.708 44.4785 282.47 40.2279C283.669 33.546 287.816 32.466 289.541 32.3158C291.421 32.1483 294.778 32.414 296.353 33.8289C296.633 34.0645 296.86 34.3575 297.019 34.6882C297.177 35.0189 297.263 35.3797 297.27 35.7463H296.451C296.445 35.492 296.385 35.2417 296.275 35.0126C296.164 34.7835 296.006 34.5807 295.811 34.418C294.438 33.1879 291.283 32.9627 289.616 33.1128C288.076 33.2456 284.373 34.2274 283.271 40.355C282.527 44.4958 282.891 48.4403 283.271 52.2116C283.692 56.7394 284.125 61.4115 282.695 66.4533C282.084 68.4121 281.33 70.3231 280.439 72.1708C279.788 73.6147 279.113 75.0989 278.599 76.6005C277.221 80.6143 277.446 84.6165 279.326 89.9644C280.745 94.0071 281.76 97.1488 281.893 101.238C281.968 105.171 281.033 107.307 279.488 110.368Z" fill="#2A9CC8"/>
<path d="M190.577 162.831H116.748V202.68H190.577V162.831Z" fill="#2A9CC8"/>
<path d="M144.433 168.028H146.74C146.969 168.028 147.189 167.937 147.352 167.775C147.514 167.612 147.605 167.392 147.605 167.162C147.605 166.932 147.514 166.712 147.352 166.55C147.189 166.387 146.969 166.296 146.74 166.296H144.433C143.856 166.296 143.856 168.028 144.433 168.028Z" fill="#858FA9"/>
<path d="M139.241 168.028H141.548C141.778 168.028 141.998 167.937 142.16 167.775C142.322 167.612 142.414 167.392 142.414 167.162C142.414 166.932 142.322 166.712 142.16 166.55C141.998 166.387 141.778 166.296 141.548 166.296H139.241C138.664 166.296 138.664 168.028 139.241 168.028Z" fill="#858FA9"/>
<path d="M173.849 167.838C173.849 167.838 175.1 167.919 175.683 167.936C176.796 167.965 176.744 166.233 175.631 166.204C175.054 166.204 175.002 166.105 173.849 166.105C173.272 166.105 173.272 167.838 173.849 167.838Z" fill="#858FA9"/>
<path d="M169.235 167.838C169.235 167.838 170.487 167.919 171.07 167.936C172.183 167.965 172.131 166.233 171.018 166.204C170.441 166.204 170.389 166.105 169.235 166.105C168.659 166.105 168.659 167.838 169.235 167.838Z" fill="#858FA9"/>
<path d="M149.624 167.838C149.624 167.838 150.876 167.919 151.458 167.936C152.571 167.965 152.519 166.233 151.406 166.204C150.829 166.204 150.778 166.105 149.624 166.105C149.047 166.105 149.047 167.838 149.624 167.838Z" fill="#858FA9"/>
<path d="M134.052 167.838C134.052 167.838 135.303 167.919 135.886 167.936C136.999 167.965 136.947 166.233 135.834 166.204C135.257 166.204 135.205 166.105 134.052 166.105C133.475 166.105 133.475 167.838 134.052 167.838Z" fill="#858FA9"/>
<path d="M128.282 167.838C128.282 167.838 129.534 167.919 130.116 167.936C131.23 167.965 131.178 166.233 130.064 166.204C129.488 166.204 129.436 166.105 128.282 166.105C127.705 166.105 127.705 167.838 128.282 167.838Z" fill="#858FA9"/>
<path d="M178.429 185.568C177.794 181.462 173.336 175.623 168.721 176.836C166.697 176.686 164.355 177.257 162.953 178.499C160.508 180.694 160.069 183.194 159.966 186.417C159.781 191.823 163.467 196.997 169.321 196.166C171.628 195.836 174.478 195.138 176.323 193.607C178.463 191.857 178.809 188.04 178.429 185.568ZM176.393 191.187C175.62 192.972 173.509 193.786 171.778 194.375C166.628 196.137 162.019 193.931 161.217 188.392C160.86 185.938 160.958 183.246 162.036 180.977C162.948 179.054 165.428 177.939 167.735 177.754C167.743 177.807 167.762 177.858 167.791 177.904C167.819 177.95 167.857 177.989 167.901 178.02C167.945 178.051 167.995 178.072 168.048 178.083C168.101 178.094 168.155 178.094 168.208 178.083C172.199 177.592 175.129 180.393 176.473 183.951C177.413 186.509 177.506 188.612 176.393 191.187Z" fill="#FFA348"/>
<path d="M146.393 180.861C144.703 178.372 143.111 177.072 140.083 176.634C138.232 176.362 136.103 176.183 134.471 177.286C134.389 177.348 134.33 177.435 134.304 177.534C132.072 178.147 130.48 179.908 129.303 181.831C127.573 184.719 128.271 187.855 129.268 190.829C131.166 196.489 138.497 197.24 143.186 194.941C145.592 193.757 147.362 190.962 148.147 188.496C148.995 185.816 147.893 183.079 146.393 180.861ZM144.328 191.886C141.231 195.796 133.369 195.438 130.814 191.135C130.148 190.047 129.713 188.832 129.539 187.567C129.365 186.302 129.454 185.015 129.801 183.786C130.149 182.558 130.747 181.415 131.557 180.429C132.368 179.444 133.374 178.637 134.511 178.06C134.569 178.072 134.627 178.072 134.685 178.06C137.747 177.737 141.098 177.731 143.573 179.793C144.726 180.745 145.465 182.478 146.082 183.766C147.558 186.856 146.243 189.472 144.328 191.886Z" fill="#FFA348"/>
<path d="M140.188 184.586C140.024 184.26 139.784 183.977 139.489 183.761C139.195 183.545 138.853 183.402 138.492 183.345C138.251 183.304 138.004 183.315 137.768 183.376C137.531 183.438 137.31 183.549 137.12 183.703C136.935 183.724 136.756 183.783 136.595 183.876C136.282 184.1 136.006 184.37 135.776 184.679C135.536 184.969 135.372 185.316 135.301 185.686C135.229 186.056 135.252 186.439 135.366 186.798C135.799 188.173 137.506 189.108 138.861 188.363C139.199 188.206 139.503 187.983 139.753 187.707C140.004 187.431 140.197 187.107 140.32 186.755C140.444 186.403 140.496 186.03 140.473 185.657C140.45 185.285 140.354 184.921 140.188 184.586ZM138.296 187.82C137.027 188.323 135.741 186.948 135.989 185.747C136.099 185.329 136.313 184.945 136.612 184.632C136.656 184.662 136.709 184.678 136.762 184.678C136.815 184.678 136.867 184.662 136.912 184.632C137.241 184.374 137.614 184.178 138.014 184.055C138.334 184.019 138.657 184.085 138.938 184.244C139.218 184.403 139.442 184.646 139.577 184.939C140.251 186.099 139.375 187.387 138.296 187.82Z" fill="#FFA348"/>
<path d="M171.335 184.586C171.17 184.26 170.931 183.977 170.636 183.761C170.341 183.545 169.999 183.402 169.639 183.345C169.398 183.304 169.151 183.315 168.914 183.376C168.677 183.438 168.457 183.549 168.266 183.703C168.081 183.724 167.903 183.783 167.741 183.876C167.428 184.1 167.152 184.37 166.922 184.679C166.682 184.969 166.519 185.316 166.447 185.686C166.376 186.056 166.398 186.439 166.513 186.798C166.945 188.173 168.652 189.108 170.008 188.363C170.346 188.206 170.649 187.983 170.9 187.707C171.15 187.431 171.343 187.107 171.467 186.755C171.59 186.403 171.642 186.03 171.62 185.657C171.597 185.285 171.5 184.921 171.335 184.586ZM169.443 187.82C168.174 188.323 166.887 186.948 167.135 185.747C167.245 185.329 167.46 184.945 167.758 184.632C167.803 184.662 167.855 184.678 167.908 184.678C167.962 184.678 168.014 184.662 168.058 184.632C168.387 184.374 168.761 184.178 169.16 184.055C169.48 184.019 169.804 184.085 170.084 184.244C170.365 184.403 170.588 184.646 170.723 184.939C171.398 186.099 170.521 187.387 169.443 187.82Z" fill="#FFA348"/>
<path d="M127.055 171.384C128.526 170.772 131.283 171.32 132.875 171.315C135.367 171.315 137.866 171.315 140.373 171.315C145.334 171.315 150.288 171.378 155.243 171.222C160.198 171.066 165.198 171.118 170.164 171.222C172.524 171.263 174.883 171.343 177.247 171.361C178.436 171.361 179.803 171.661 180.904 171.153C181.689 170.789 181.002 169.599 180.218 169.998C178.845 170.674 175.73 170.073 174.231 170.056C171.872 170.027 169.513 169.969 167.148 169.957C162.188 169.957 157.239 169.992 152.278 170.096C147.22 170.2 142.156 170.096 137.097 170.096C134.744 170.096 132.389 170.096 130.032 170.096C129.022 170.096 127.523 169.778 126.629 170.385C126.115 170.731 126.433 171.713 127.073 171.447L127.055 171.384Z" fill="#FCC18B"/>
<path d="M203.842 85.4424H172.695V105.078H203.842V85.4424Z" fill="#FCC18B"/>
<path d="M196.921 88.9075H179.617V92.9501H196.921V88.9075Z" fill="#FFA348"/>
<path d="M263.252 137.42H232.105V157.056H263.252V137.42Z" fill="#FCC18B"/>
<path d="M256.329 140.885H239.025V144.927H256.329V140.885Z" fill="#FFA348"/>
<path d="M154.238 30H112.133V60.0313H154.238V30Z" fill="#FCC18B"/>
<path d="M143.857 33.4651H122.516V37.5078H143.857V33.4651Z" fill="#FFA348"/>
<path d="M200.381 30H158.275V60.0313H200.381V30Z" fill="#FCC18B"/>
<path d="M189.999 33.4651H168.658V37.5078H189.999V33.4651Z" fill="#FFA348"/>
<path d="M262.674 30H220.568V60.0313H262.674V30Z" fill="#FCC18B"/>
<path d="M252.292 33.4651H230.951V37.5078H252.292V33.4651Z" fill="#FFA348"/>
<path d="M249.984 75.0469H207.879V105.078H249.984V75.0469Z" fill="#FCC18B"/>
<path d="M239.603 78.5122H218.262V82.5549H239.603V78.5122Z" fill="#FFA348"/>
<path d="M175.58 127.024H133.475V157.055H175.58V127.024Z" fill="#FCC18B"/>
<path d="M165.197 130.489H143.855V134.532H165.197V130.489Z" fill="#FFA348"/>
<path d="M303.627 172.649H261.521V202.68H303.627V172.649Z" fill="#FCC18B"/>
<path d="M293.243 176.114H271.902V180.156H293.243V176.114Z" fill="#FFA348"/>
<path d="M68.673 209.397C67.5194 208.12 66.3658 207.826 64.7393 207.497C63.6376 207.277 62.5418 207.069 61.4459 206.838C59.2483 206.365 58.5619 204.638 57.6218 202.853C57.3622 202.368 53.8554 203.587 52.4307 203.72C51.7789 203.783 50.2908 203.985 50.2043 204.239C49.5583 206.134 49.9966 208.138 49.9044 210.095C49.8294 211.741 49.7313 212.244 51.5136 212.619C55.2665 213.368 59.0842 213.743 62.9109 213.74C64.6413 213.74 66.5216 213.878 67.8943 212.585C68.7249 211.834 69.6593 210.488 68.673 209.397Z" fill="#FCC18B"/>
<path d="M8.41053 174.104C6.77822 174.964 4.70179 174.93 3.00604 175.721C1.91591 176.229 1.72557 178.031 1.52946 179.059C0.629675 183.749 -1.08915 188.831 0.952676 193.497C2.32543 196.558 5.42854 191.765 5.99379 190.731C8.22595 186.521 8.69892 181.132 14.4322 180.255C14.9571 180.156 8.61817 173.994 8.41053 174.104Z" fill="#FCC18B"/>
<path d="M55.0314 129.023C57.9215 128.829 60.8242 128.967 63.6832 129.433C67.0343 129.923 69.5664 129.669 72.9118 130.322C75.5131 130.836 77.6645 128.872 77.8837 131.696C78.1894 135.531 77.255 142.167 76.7301 145.915C75.64 153.683 74.6248 161.716 72.26 169.345C69.7164 177.535 67.1727 185.562 63.0833 193.347C61.3991 196.558 60.8569 200.306 59.19 203.575C57.575 206.746 52.407 204.805 49.2347 205.839C49.0501 202.876 50.1518 200.572 51.1265 197.754C53.7567 190.246 55.239 182.317 58.0768 174.855C59.2571 171.856 60.0762 168.727 60.5166 165.534C60.955 162.536 61.2376 151.096 60.1533 151.171C59.2189 150.951 52.9723 162.594 48.0407 167.382C43.6168 171.69 36.7992 172.99 31.4523 175.184C28.0377 176.684 24.5199 177.937 20.926 178.932C17.6037 179.764 15.51 180.451 12.851 182.397C11.7608 181.456 11.0514 179.4 10.1112 178.153C9.14063 176.798 7.92822 175.635 6.53516 174.722C7.42341 174.376 7.82716 173.642 8.57699 173.093C9.68228 172.367 10.8389 171.723 12.0377 171.165C14.4371 169.9 16.7328 168.67 19.2014 167.555C23.285 165.724 27.311 164.309 31.4985 162.9C34.6939 161.82 37.9066 161.052 40.9117 159.614C44.182 158.049 44.2455 154.838 45.1049 151.581C46.1316 147.677 47.2448 143.674 48.3695 139.793C49.1309 137.148 51.1323 131.338 52.1417 130.114C53.1511 128.89 55.0314 129.023 55.0314 129.023Z" fill="#414355"/>
<path d="M113.24 49.2199C112.386 48.1053 111.475 48.1111 110.604 48.6424C110.516 48.6162 110.423 48.6114 110.333 48.6285C110.242 48.6456 110.157 48.684 110.085 48.7406C108.931 49.6531 108.066 50.9756 107.086 52.0729C105.39 53.9788 103.735 55.8673 102.148 57.8482C100.647 59.5927 99.0469 61.2491 97.3553 62.8091C95.3769 64.7727 93.7965 67.0886 92.0258 69.2312C88.8246 73.1006 85.7272 77.0798 82.8433 81.2033C81.534 83.0745 80.2535 84.9861 79.0827 86.9785C77.9118 88.971 77.0005 91.3562 75.0452 92.696C74.999 92.7273 74.9661 92.7747 74.9529 92.8289C74.3724 93.1134 73.7296 93.2465 73.0841 93.2158C71.6248 93.1523 65.3263 93.2793 64.1208 93.3833C63.3883 93.4526 63.1172 92.5863 62.9672 92.7134C59.916 94.9599 57.0263 96.4557 54.4077 99.3029C51.3507 102.635 48.0631 105.713 44.8734 108.896C41.2685 112.465 38.0674 116.432 34.7451 120.261C33.4877 121.711 32.3283 123.542 31.2209 125.113C30.1827 126.585 28.8388 127.815 27.8871 129.346C27.6333 129.75 30.1596 133.51 30.0846 133.567C29.7674 133.81 30.1769 134.312 30.5057 134.11C32.3629 132.99 33.7645 131.442 35.293 129.929C37.8597 127.382 40.4437 124.841 43.2065 122.496C46.8403 119.412 50.7394 116.357 53.4387 112.367C52.9873 114.516 52.6676 116.692 52.4813 118.881C52.1429 123.085 51.7583 127.284 51.3277 131.477C51.319 131.57 51.337 131.665 51.3796 131.748C51.3931 131.795 51.419 131.837 51.4546 131.87C51.4791 131.892 51.5062 131.911 51.5353 131.927C51.5353 131.927 51.5353 131.927 51.5757 131.956L51.6622 131.985C53.3926 132.69 55.2325 132.436 57.0898 132.418C60.4005 132.389 63.6017 132.632 66.8952 132.736C69.0927 132.811 71.1865 132.158 73.4013 132.199C74.5549 132.199 76.3372 132.534 77.4907 132.06C77.6201 132.051 77.7448 132.007 77.8521 131.934C77.9595 131.861 78.0457 131.761 78.1021 131.644C79.1865 129.912 78.5232 126.822 78.5232 124.893C78.5232 121.515 78.8346 118.148 78.7654 114.769C78.702 111.604 79.1807 108.538 79.2615 105.402C79.3018 103.715 79.6421 101.936 79.348 100.285C80.4266 99.326 81.113 98.0497 82.1281 97.0102C83.7611 95.231 85.2555 93.3293 86.5982 91.3215C89.8513 86.7013 93.2312 82.3064 96.3343 77.6053C99.2817 73.1526 102.898 69.2889 105.863 64.8709C107.443 62.5608 108.943 60.1352 110.564 57.8193C111.994 55.7691 112.871 53.3724 114.261 51.2644C114.584 50.7908 113.488 49.5376 113.24 49.2199Z" fill="#FFA348"/>
<path d="M65.0386 63.2077C62.9276 64.1722 60.482 69.7742 59.686 74.2673C59.1119 77.7407 59.6236 81.3069 61.151 84.478C61.7302 85.8671 62.2176 87.2928 62.6103 88.7459C62.9326 89.467 63.1371 90.2353 63.216 91.0213C63.216 91.4833 62.4315 93.2044 62.495 93.6722C64.5801 93.7229 66.6663 93.6438 68.7416 93.4354C69.7509 93.3661 72.0581 93.3834 72.2023 93.1466C72.6674 92.2321 73.2491 91.3818 73.9326 90.6171C75.415 89.2772 77.2088 88.4167 78.3566 86.6899C79.322 85.1869 80.0206 83.528 80.4215 81.7867C80.88 79.9638 80.9468 78.0642 80.6176 76.2136C80.3119 74.481 79.1468 72.9217 78.9565 71.2006C78.818 69.9763 80.9752 68.9887 80.2081 67.4467C79.7005 66.4245 76.8223 67.8972 75.5938 67.0598C74.048 65.9798 73.004 64.2935 71.3429 63.329C70.1778 62.6244 67.1439 62.249 65.0386 63.2077Z" fill="#414355"/>
<path d="M112.434 50.7447C111.453 50.0806 110.375 49.9882 109.359 49.4915C111.251 46.9851 110.213 44.5768 110.559 40.8806C110.703 39.3386 111.182 38.2298 112.099 38.7611C112.728 39.1249 112.918 40.7074 113.189 41.4004C113.541 42.3129 113.737 41.8682 114.343 41.2733C115.883 39.8122 117.267 37.9583 119.332 37.196C120.935 36.6185 121.345 37.5945 120.399 38.7842C119.713 39.6505 118.559 40.7478 118.242 41.8047C119.269 41.9952 122.989 37.762 123.785 39.9393C124.419 41.7065 119.978 43.1561 119.32 44.5595C120.018 44.675 120.82 44.2534 121.466 44.0166C122.752 43.5372 124.292 43.0348 124.575 43.7798C125.06 45.0272 122.216 46.0899 121.835 46.2516C120.48 46.8638 119.447 47.9322 118.375 48.9082C117.456 49.7597 116.343 50.3725 115.133 50.6928C114.556 50.8545 114.089 51.6861 113.76 51.8478L112.434 50.7447Z" fill="#414355"/>
<path d="M29.999 134.532C28.3552 135.473 26.8729 135.046 25.6731 135.161C23.6313 135.369 20.8397 139.291 18.6652 137.581C17.1194 136.374 18.0365 134.775 18.9478 133.764C19.7761 132.779 20.728 131.906 21.7798 131.165C22.9334 130.414 24.8137 130.518 26.1057 130.177C27.5016 129.802 27.6458 129.132 28.7532 128.179C28.5109 129.583 29.6645 132.609 31.5391 133.186C31.1222 133.735 30.5982 134.193 29.999 134.532Z" fill="#414355"/>
<path d="M72.2486 64.5591C72.5773 67.1696 70.5182 69.9475 71.2911 73.0257C72.0294 75.9826 71.9602 79.5575 70.3394 82.139C68.5456 85.0266 67.9284 85.6504 66.4807 88.8152C65.4482 91.0849 66.8671 94.2035 62.0625 97.0911C58.8786 99.0027 52.4994 98.2462 48.6003 96.9006C44.7012 95.5549 42.1518 93.7357 41.823 90.1146C41.2463 83.7619 48.1677 85.4309 50.7171 78.8009C52.3148 74.6485 49.5635 64.6515 60.7128 61.2846C63.1065 60.5569 71.6718 59.9389 72.2486 64.5591Z" fill="#2A9CC8"/>
</g>
<defs>
<clipPath id="clip0_3355_166752">
<rect width="350" height="250" fill="white"/>
</clipPath>
</defs>
</svg>
